<?xml version="1.0" encoding="UTF-8" standalone="no"?>
<!-- Created with Inkscape (http://www.inkscape.org/) -->

<svg
   xmlns:dc="http://purl.org/dc/elements/1.1/"
   xmlns:cc="http://creativecommons.org/ns#"
   xmlns:rdf="http://www.w3.org/1999/02/22-rdf-syntax-ns#"
   xmlns:svg="http://www.w3.org/2000/svg"
   xmlns="http://www.w3.org/2000/svg"
   xmlns:sodipodi="http://sodipodi.sourceforge.net/DTD/sodipodi-0.dtd"
   xmlns:inkscape="http://www.inkscape.org/namespaces/inkscape"
   version="1.1"
   id="svg74"
   xml:space="preserve"
   width="377.953"
   height="377.95331"
   viewBox="0 0 377.953 377.9533"
   sodipodi:docname="bayer.svg"
   inkscape:version="0.92.4 5da689c313, 2019-01-14"><metadata
     id="metadata80"><rdf:RDF><cc:Work
         rdf:about=""><dc:format>image/svg+xml</dc:format><dc:type
           rdf:resource="http://purl.org/dc/dcmitype/StillImage" /><dc:title></dc:title></cc:Work></rdf:RDF></metadata><defs
     id="defs78" /><sodipodi:namedview
     pagecolor="#ffffff"
     bordercolor="#666666"
     borderopacity="1"
     objecttolerance="10"
     gridtolerance="10"
     guidetolerance="10"
     inkscape:pageopacity="0"
     inkscape:pageshadow="2"
     inkscape:window-width="1916"
     inkscape:window-height="1041"
     id="namedview76"
     showgrid="false"
     inkscape:zoom="2.2074844"
     inkscape:cx="188.76637"
     inkscape:cy="188.93197"
     inkscape:window-x="1920"
     inkscape:window-y="18"
     inkscape:window-maximized="0"
     inkscape:current-layer="g82"
     fit-margin-top="0"
     fit-margin-left="0"
     fit-margin-right="0"
     fit-margin-bottom="0" /><g
     id="g82"
     inkscape:groupmode="layer"
     inkscape:label="ink_ext_XXXXXX"
     transform="matrix(1.3333333,0,0,-1.3333333,-3.9869732,381.77466)"><g
       id="g84"
       transform="scale(0.1)"><path
         d="m 1625.71,2403.79 c 22.19,-21.61 35.97,-51.82 35.97,-85.27 0,-65.62 -53.22,-118.94 -118.86,-119.04 H 1269.7 v 392.18 l 268.63,-0.02 c 63.05,-0.1 114.11,-51.29 114.11,-114.36 0,-27.97 -10.07,-53.6 -26.73,-73.49 z m -262.63,-120.25 h 168.16 c 20.58,0 37.23,16.71 37.23,37.39 0,20.61 -16.64,37.32 -37.22,37.32 h -168.17 z m 0,158.69 h 163.33 c 18.01,0 32.7,14.65 32.7,32.7 0,17.97 -14.69,32.67 -32.7,32.67 h -163.33 v -65.37"
         style="fill:#18354b;fill-opacity:1;fill-rule:nonzero;stroke:none"
         id="path86"
         inkscape:connector-curvature="0" /><path
         d="m 1447.03,2024.21 -68.86,-142.41 h 137.71 z m 241.5,-291.73 h -100.24 l -31.56,65.36 h -219.4 l -31.6,-65.36 h -100.19 l 196.02,392.04 h 90.89 l 196.08,-392.04"
         style="fill:#18354b;fill-opacity:1;fill-rule:nonzero;stroke:none"
         id="path88"
         inkscape:connector-curvature="0" /><path
         d="m 1580.21,1648.44 h 112.33 l -198.81,-255.26 v -136.8 h -93.39 v 136.8 l -198.79,255.26 h 112.31 l 133.2,-178.53 133.15,178.53"
         style="fill:#18354b;fill-opacity:1;fill-rule:nonzero;stroke:none"
         id="path90"
         inkscape:connector-curvature="0" /><path
         d="m 2100.01,1648.44 v -84.03 h -261.37 v -65.35 l 252.02,0.03 v -83.98 h -252.02 v -74.71 h 261.37 v -84.02 h -354.73 v 392.06 h 354.73"
         style="fill:#18354b;fill-opacity:1;fill-rule:nonzero;stroke:none"
         id="path92"
         inkscape:connector-curvature="0" /><path
         d="m 2453.95,1564.41 h -135.59 v -74.67 h 135.59 c 20.51,0.13 37.09,16.82 37.09,37.31 0,20.55 -16.58,37.24 -37.09,37.36 z m -65.56,-158.68 h -70.03 v -149.35 h -93.35 v 392.06 h 238.44 c 66.85,-0.22 121.02,-54.52 121.02,-121.47 0,-55.26 -36.55,-101.82 -87.12,-116.49 l 115.07,-154.1 h -112.04 l -111.99,149.35"
         style="fill:#18354b;fill-opacity:1;fill-rule:nonzero;stroke:none"
         id="path94"
         inkscape:connector-curvature="0" /><path
         d="m 1003.64,1548.15 -68.878,-142.42 h 137.708 z m 241.47,-291.77 h -100.22 l -31.55,65.35 H 893.953 l -31.598,-65.35 H 762.168 l 196.016,392.06 h 90.886 l 196.04,-392.06"
         style="fill:#18354b;fill-opacity:1;fill-rule:nonzero;stroke:none"
         id="path96"
         inkscape:connector-curvature="0" /><path
         d="m 674.176,1460.38 c 22.207,-21.62 35.976,-51.83 35.976,-85.27 0,-65.64 -53.214,-118.97 -118.828,-119.08 H 318.219 v 392.19 h 268.613 c 63.051,-0.12 114.113,-51.28 114.113,-114.35 0,-27.99 -10.082,-53.61 -26.769,-73.49 z M 411.594,1340.11 h 168.109 c 20.613,0 37.238,16.74 37.238,37.4 0,20.61 -16.597,37.35 -37.214,37.35 H 411.594 Z m 0,158.71 h 163.289 c 18.043,0 32.715,14.65 32.715,32.68 0,17.99 -14.672,32.67 -32.715,32.67 l -163.289,0.01 v -65.36"
         style="fill:#18354b;fill-opacity:1;fill-rule:nonzero;stroke:none"
         id="path98"
         inkscape:connector-curvature="0" /><path
         d="m 1624.44,1172.38 v -84.05 h -261.41 v -65.35 l 252.05,0.04 v -83.981 h -252.05 v -74.707 h 261.41 V 780.34 H 1269.7 v 392.04 h 354.74"
         style="fill:#18354b;fill-opacity:1;fill-rule:nonzero;stroke:none"
         id="path100"
         inkscape:connector-curvature="0" /><path
         d="m 1269.69,294.91 v 392.059 h 261.88 c 66.72,-0.449 120.63,-54.668 120.63,-121.528 0,-50.839 -31.19,-94.41 -75.5,-112.562 L 1694.46,294.91 H 1582.4 L 1470.36,444.23 H 1363.03 V 294.91 Z m 289.22,270.61 c 0,20.57 -16.54,37.191 -37.01,37.378 H 1363.03 V 528.27 h 158.87 c 20.49,0.199 37.01,16.859 37.01,37.25"
         style="fill:#18354b;fill-opacity:1;fill-rule:nonzero;stroke:none"
         id="path102"
         inkscape:connector-curvature="0" /><path
         d="M 2861.76,1533.8 C 2816.4,2275.65 2200.49,2863.31 1447.22,2863.31 693.953,2863.31 78.0469,2275.65 32.6836,1533.8 c 1.8242,-29.75 4.4922,-59.28 8.1211,-88.49 C 71.4141,1198.55 165.488,971.5 306.137,780.91 564.238,431.16 979.203,204.27 1447.22,204.27 c -655.165,0 -1193.372,510.062 -1238.572,1153.91 -2.031,29.02 -3.14,58.28 -3.14,87.81 0,29.53 1.109,58.79 3.14,87.81 45.2,643.85 583.407,1153.9 1238.572,1153.9 468.11,0 883.13,-226.99 1141.2,-576.87 140.79,-190.88 234.78,-418.36 265.21,-665.52 3.56,-28.79 6.33,-57.82 8.13,-87.13 1.78,29.06 2.79,58.32 2.79,87.81 0,29.5 -1.01,58.75 -2.79,87.81"
         style="fill:#78ca35;fill-opacity:1;fill-rule:nonzero;stroke:none"
         id="path104"
         inkscape:connector-curvature="0" /><path
         d="M 32.6953,1358.18 C 78.0547,616.32 693.965,28.6602 1447.24,28.6602 c 753.26,0 1369.17,587.6598 1414.53,1329.5198 -1.83,29.74 -4.49,59.27 -8.13,88.49 -30.6,246.76 -124.68,473.81 -265.33,664.4 -258.1,349.74 -673.07,576.63 -1141.07,576.63 655.15,0 1193.37,-510.05 1238.57,-1153.91 2.03,-29.02 3.14,-58.28 3.14,-87.81 0,-29.52 -1.12,-58.78 -3.15,-87.8 C 2640.61,714.309 2102.39,204.27 1447.24,204.27 979.121,204.27 564.102,431.262 306.035,781.141 165.242,972.02 71.25,1199.5 40.8203,1446.67 c -3.5547,28.79 -6.3281,57.81 -8.125,87.12 -1.7773,-29.05 -2.793,-58.31 -2.793,-87.81 0,-29.48 1.0157,-58.74 2.793,-87.8"
         style="fill:#56bdee;fill-opacity:1;fill-rule:nonzero;stroke:none"
         id="path106"
         inkscape:connector-curvature="0" /></g></g></svg>