<?xml version="1.0" encoding="UTF-8" standalone="no"?>
<!-- Created with Inkscape (http://www.inkscape.org/) -->

<svg
   xmlns:dc="http://purl.org/dc/elements/1.1/"
   xmlns:cc="http://creativecommons.org/ns#"
   xmlns:rdf="http://www.w3.org/1999/02/22-rdf-syntax-ns#"
   xmlns:svg="http://www.w3.org/2000/svg"
   xmlns="http://www.w3.org/2000/svg"
   xmlns:sodipodi="http://sodipodi.sourceforge.net/DTD/sodipodi-0.dtd"
   xmlns:inkscape="http://www.inkscape.org/namespaces/inkscape"
   version="1.1"
   id="svg3732"
   xml:space="preserve"
   width="377.95999"
   height="110.05333"
   viewBox="0 0 377.95999 110.05333"
   sodipodi:docname="boge.svg"
   inkscape:version="0.92.4 5da689c313, 2019-01-14"><metadata
     id="metadata3738"><rdf:RDF><cc:Work
         rdf:about=""><dc:format>image/svg+xml</dc:format><dc:type
           rdf:resource="http://purl.org/dc/dcmitype/StillImage" /><dc:title></dc:title></cc:Work></rdf:RDF></metadata><defs
     id="defs3736" /><sodipodi:namedview
     pagecolor="#ffffff"
     bordercolor="#666666"
     borderopacity="1"
     objecttolerance="10"
     gridtolerance="10"
     guidetolerance="10"
     inkscape:pageopacity="0"
     inkscape:pageshadow="2"
     inkscape:window-width="1916"
     inkscape:window-height="1041"
     id="namedview3734"
     showgrid="false"
     inkscape:zoom="4.5666209"
     inkscape:cx="188.98"
     inkscape:cy="55.026665"
     inkscape:window-x="1920"
     inkscape:window-y="18"
     inkscape:window-maximized="0"
     inkscape:current-layer="g3740" /><g
     id="g3740"
     inkscape:groupmode="layer"
     inkscape:label="ink_ext_XXXXXX"
     transform="matrix(1.3333333,0,0,-1.3333333,0,110.05333)"><g
       id="g3742"
       transform="scale(0.1)"><path
         d="m 1027.93,74.2188 c 5.41,0 9.67,1.5937 12.75,4.8242 3.11,3.2226 4.65,7.2656 4.65,12.1601 0,5.2813 -1.54,9.4729 -4.65,12.5669 -3.08,3.105 -7.34,4.64 -12.75,4.64 h -17.97 V 74.2188 Z m -46.371,58.1442 h 47.911 c 7.48,0 14.06,-1.054 19.73,-3.191 5.66,-2.109 10.39,-5 14.2,-8.684 3.78,-3.679 6.62,-7.957 8.49,-12.851 1.88,-4.903 2.82,-10.1253 2.82,-15.6448 0,-8.3867 -1.85,-15.6914 -5.51,-21.9531 -3.67,-6.2383 -8.86,-11.2305 -15.57,-14.961 l 28.61,-51.58982 h -32.09 l -23.96,47.33202 h -16.23 V 3.48828 H 981.559 V 132.363"
         style="fill:#231f20;fill-opacity:1;fill-rule:nonzero;stroke:none"
         id="path3744"
         inkscape:connector-curvature="0" /><path
         d="m 1101.74,132.363 h 29.37 V 56.0469 c 0,-4.25 0.43,-8.0977 1.25,-11.5039 0.85,-3.4102 2.24,-6.3594 4.16,-8.7891 1.95,-2.4609 4.49,-4.3476 7.64,-5.7148 3.16,-1.3477 7.05,-2.0196 11.7,-2.0196 4.5,0 8.32,0.6719 11.48,2.0196 3.17,1.3672 5.71,3.2539 7.64,5.7148 1.93,2.4297 3.32,5.3789 4.16,8.7891 0.83,3.4062 1.25,7.2539 1.25,11.5039 v 76.3161 h 29.57 V 52.3633 c 0,-7.7344 -1.25,-14.8047 -3.77,-21.25 -2.51,-6.4258 -6.12,-11.9531 -10.82,-16.5235 -4.71,-4.5781 -10.41,-8.1523 -17.1,-10.72261 C 1171.56,1.28906 1164.1,0 1155.86,0 c -8.24,0 -15.72,1.25 -22.42,3.76953 -6.71,2.51172 -12.41,6.08594 -17.12,10.71487 -4.68,4.6562 -8.3,10.2031 -10.82,16.6289 -2.5,6.4453 -3.76,13.5156 -3.76,21.25 v 79.9997"
         style="fill:#231f20;fill-opacity:1;fill-rule:nonzero;stroke:none"
         id="path3746"
         inkscape:connector-curvature="0" /><path
         d="m 1288.43,25.8984 c 2.04,0 4.36,0.1563 6.94,0.4883 2.57,0.3321 4.96,1.0547 7.14,2.2188 2.19,1.1601 4.05,2.832 5.51,5.0078 1.49,2.1992 2.23,5.2265 2.23,9.1015 0,3.4766 -0.7,6.3086 -2.12,8.4883 -1.42,2.1953 -3.23,3.9063 -5.42,5.125 -2.19,1.2305 -4.57,2.0703 -7.15,2.5117 -2.58,0.4571 -4.94,0.6719 -7.13,0.6719 h -18.96 V 25.8984 Z m -1.76,54.8829 c 2.19,0 4.35,0.2539 6.49,0.7617 2.11,0.5195 3.98,1.3203 5.6,2.4218 1.61,1.0938 2.91,2.5782 3.95,4.4454 1.04,1.875 1.56,4.1484 1.56,6.8632 0,2.8321 -0.52,5.1756 -1.56,7.0426 -1.04,1.875 -2.38,3.36 -4.04,4.442 -1.68,1.105 -3.59,1.867 -5.73,2.324 -2.11,0.449 -4.21,0.684 -6.27,0.684 h -17.2 V 80.7813 Z m -45.6,51.5817 h 48.32 c 7.97,0 14.75,-0.918 20.27,-2.793 5.55,-1.882 10.06,-4.336 13.54,-7.441 3.47,-3.094 5.99,-6.66 7.54,-10.723 1.54,-4.062 2.32,-8.281 2.32,-12.656 0,-4.1289 -0.74,-7.7617 -2.23,-10.9258 -1.48,-3.1562 -3.22,-5.8515 -5.21,-8.1172 -2,-2.2461 -4.12,-4.0039 -6.39,-5.3007 -2.24,-1.3008 -4.15,-2.1407 -5.7,-2.5196 2.32,-0.5078 5,-1.4453 8.03,-2.7929 3.02,-1.3594 5.9,-3.293 8.61,-5.8008 2.7,-2.5117 4.98,-5.6758 6.84,-9.4649 1.87,-3.8164 2.81,-8.2812 2.81,-13.4375 0,-6.6992 -1.19,-12.3711 -3.57,-17 -2.39,-4.6406 -5.73,-8.4492 -10.05,-11.4062 -4.31,-2.96096 -9.6,-5.12893 -15.85,-6.46487 -6.24,-1.36719 -13.23,-2.03125 -20.96,-2.03125 h -48.32 V 132.363"
         style="fill:#231f20;fill-opacity:1;fill-rule:nonzero;stroke:none"
         id="path3748"
         inkscape:connector-curvature="0" /><path
         d="m 1415.06,25.8984 c 2.05,0 4.38,0.1563 6.96,0.4883 2.57,0.3321 4.97,1.0547 7.16,2.2188 2.22,1.1601 4.03,2.832 5.51,5.0078 1.49,2.1992 2.26,5.2265 2.26,9.1015 0,3.4766 -0.73,6.3086 -2.16,8.4883 -1.43,2.1953 -3.22,3.9063 -5.39,5.125 -2.22,1.2305 -4.61,2.0703 -7.19,2.5117 -2.58,0.4571 -4.96,0.6719 -7.15,0.6719 h -18.91 V 25.8984 Z m -1.72,54.8829 c 2.18,0 4.32,0.2539 6.48,0.7617 2.11,0.5195 3.98,1.3203 5.59,2.4218 1.62,1.0938 2.94,2.5782 3.99,4.4454 1.02,1.875 1.53,4.1484 1.53,6.8632 0,2.8321 -0.51,5.1756 -1.53,7.0426 -1.05,1.875 -2.41,3.36 -4.09,4.442 -1.66,1.105 -3.57,1.867 -5.7,2.324 -2.12,0.449 -4.21,0.684 -6.27,0.684 h -17.19 V 80.7813 Z m -45.6,51.5817 h 48.3 c 8,0 14.77,-0.918 20.29,-2.793 5.55,-1.882 10.07,-4.336 13.54,-7.441 3.48,-3.094 5.98,-6.66 7.52,-10.723 1.56,-4.062 2.34,-8.281 2.34,-12.656 0,-4.1289 -0.75,-7.7617 -2.23,-10.9258 -1.48,-3.1562 -3.24,-5.8515 -5.23,-8.1172 -1.99,-2.2461 -4.12,-4.0039 -6.37,-5.3007 -2.26,-1.3008 -4.16,-2.1407 -5.7,-2.5196 2.34,-0.5078 5,-1.4453 8.01,-2.7929 3.04,-1.3594 5.93,-3.293 8.61,-5.8008 2.71,-2.5117 4.98,-5.6758 6.86,-9.4649 1.87,-3.8164 2.81,-8.2812 2.81,-13.4375 0,-6.6992 -1.18,-12.3711 -3.57,-17 -2.38,-4.6406 -5.74,-8.4492 -10.03,-11.4062 -4.35,-2.96096 -9.61,-5.12893 -15.86,-6.46487 -6.25,-1.36719 -13.28,-2.03125 -20.99,-2.03125 h -48.3 V 132.363"
         style="fill:#231f20;fill-opacity:1;fill-rule:nonzero;stroke:none"
         id="path3750"
         inkscape:connector-curvature="0" /><path
         d="m 1494.4,132.363 h 88.12 v -25.488 h -58.94 V 81.7383 h 45.8 V 57.0117 h -45.8 v -27.832 h 63.19 V 3.48828 H 1494.4 V 132.363"
         style="fill:#231f20;fill-opacity:1;fill-rule:nonzero;stroke:none"
         id="path3752"
         inkscape:connector-curvature="0" /><path
         d="m 1661.34,74.2188 c 5.42,0 9.65,1.5937 12.77,4.8242 3.07,3.2226 4.64,7.2656 4.64,12.1601 0,5.2813 -1.57,9.4729 -4.64,12.5669 -3.12,3.105 -7.35,4.64 -12.77,4.64 h -17.99 V 74.2188 Z m -46.37,58.1442 h 47.92 c 7.47,0 14.04,-1.054 19.7,-3.191 5.67,-2.109 10.42,-5 14.2,-8.684 3.81,-3.679 6.64,-7.957 8.52,-12.851 1.85,-4.903 2.79,-10.1253 2.79,-15.6448 0,-8.3867 -1.84,-15.6914 -5.48,-21.9531 -3.7,-6.2383 -8.87,-11.2305 -15.57,-14.961 l 28.59,-51.58982 h -32.08 L 1659.6,50.8203 h -16.25 V 3.48828 h -28.38 V 132.363"
         style="fill:#231f20;fill-opacity:1;fill-rule:nonzero;stroke:none"
         id="path3754"
         inkscape:connector-curvature="0" /><path
         d="m 1816.99,60.4883 c -4.63,-3.3594 -7.84,-6.6289 -9.64,-9.8438 -1.83,-3.2226 -2.73,-6.7187 -2.73,-10.4492 0,-4.6367 1.59,-8.3789 4.73,-11.2109 3.16,-2.8321 7.45,-4.2461 12.87,-4.2461 3.73,0 6.97,0.7031 9.75,2.1094 2.77,1.4453 5.62,3.4257 8.59,6.0156 z m 39.04,-46.3867 c -5.79,-4.76566 -11.49,-8.23051 -17.09,-10.42972 -5.61,-2.1875 -11.97,-3.281255 -19.04,-3.281255 -6.45,0 -12.29,0.937505 -17.5,2.812505 -5.21,1.84765 -9.69,4.42578 -13.41,7.70707 -3.75,3.3086 -6.61,7.2265 -8.62,11.7968 -2,4.5703 -2.99,9.6368 -2.99,15.1641 0,7.6094 2,14.8633 5.99,21.75 3.99,6.8828 10.43,13.0352 19.32,18.4453 -2.97,3.9961 -5.11,8.0859 -6.46,12.2774 -1.37,4.1875 -2.04,8.1445 -2.04,11.8752 0,4.656 0.94,8.992 2.8,13.054 1.87,4.055 4.51,7.59 7.94,10.625 3.4,3.04 7.51,5.442 12.35,7.247 4.83,1.796 10.27,2.714 16.33,2.714 9.39,0 17.03,-2.187 22.91,-6.582 5.86,-4.375 10.25,-9.668 13.22,-15.839 l -19.71,-12.176 c -2.05,4.375 -4.37,7.468 -6.95,9.265 -2.58,1.817 -5.34,2.707 -8.31,2.707 -3.86,0 -6.98,-1.113 -9.37,-3.371 -2.38,-2.254 -3.57,-5.058 -3.57,-8.406 0,-2.5898 0.67,-5.0507 2.03,-7.4414 1.35,-2.375 2.94,-4.6797 4.74,-6.8672 l 30.13,-35.7421 17.4,19.9023 18.75,-16.4258 -19.92,-22.6172 24.35,-28.77732 h -34.2 l -9.08,10.61332"
         style="fill:#231f20;fill-opacity:1;fill-rule:nonzero;stroke:none"
         id="path3756"
         inkscape:connector-curvature="0" /><path
         d="m 2006.55,72.4727 c 5.39,0 9.69,1.6406 12.83,4.9218 3.16,3.2891 4.75,7.5586 4.75,12.8516 0,5.3984 -1.63,9.8129 -4.85,13.2419 -3.22,3.407 -7.53,5.117 -12.93,5.117 h -16.82 V 72.4727 Z m -45.43,59.8903 h 46.95 c 7.99,0 14.83,-1.152 20.51,-3.457 5.64,-2.332 10.31,-5.39 14,-9.199 3.66,-3.789 6.37,-8.203 8.11,-13.223 1.74,-5.027 2.63,-10.2535 2.63,-15.6637 0,-6.9531 -1.23,-13.0273 -3.59,-18.2617 -2.4,-5.2148 -5.6,-9.5508 -9.67,-13.0469 -4.06,-3.4648 -8.73,-6.1133 -14.01,-7.9179 -5.28,-1.7969 -10.83,-2.7071 -16.61,-2.7071 h -19.91 V 3.48828 h -28.41 V 132.363"
         style="fill:#231f20;fill-opacity:1;fill-rule:nonzero;stroke:none"
         id="path3758"
         inkscape:connector-curvature="0" /><path
         d="m 2074.26,132.363 h 29.18 V 29.375 h 52.33 V 3.48828 h -81.51 V 132.363"
         style="fill:#231f20;fill-opacity:1;fill-rule:nonzero;stroke:none"
         id="path3760"
         inkscape:connector-curvature="0" /><path
         d="m 2244.33,55.6445 -15.65,48.7105 -16.04,-48.7105 z m -30.73,76.7185 h 32.26 L 2293.01,3.48828 h -31.87 l -9.86,29.55862 h -45.42 l -9.84,-29.55862 h -30.52 l 48.1,128.87472"
         style="fill:#231f20;fill-opacity:1;fill-rule:nonzero;stroke:none"
         id="path3762"
         inkscape:connector-curvature="0" /><path
         d="m 2318.78,41.9336 c 1.65,-1.8047 3.61,-3.6406 5.87,-5.5156 2.26,-1.8555 4.77,-3.5547 7.52,-5.1094 2.79,-1.543 5.83,-2.8125 9.11,-3.7578 3.29,-0.9688 6.8,-1.457 10.52,-1.457 2.19,0 4.38,0.3242 6.59,0.957 2.16,0.6445 4.17,1.582 5.97,2.8047 1.8,1.2187 3.25,2.7031 4.36,4.4414 1.09,1.7578 1.64,3.7031 1.64,5.8984 0,4.7656 -2.33,8.4766 -6.96,11.1133 -4.65,2.6367 -11.99,5.2539 -22.03,7.832 -4.9,1.1524 -9.45,2.8242 -13.63,5.0196 -4.18,2.1875 -7.78,4.8242 -10.82,7.9218 -3.03,3.0743 -5.39,6.6289 -7.04,10.6328 -1.69,3.9844 -2.53,8.4297 -2.53,13.3321 0,5.4101 0.97,10.4961 2.92,15.2811 1.92,4.746 4.85,8.965 8.78,12.637 3.92,3.672 8.83,6.582 14.69,8.703 5.85,2.117 12.78,3.191 20.76,3.191 6.58,0 12.38,-0.671 17.41,-2.031 5.01,-1.355 9.31,-2.969 12.84,-4.832 3.54,-1.875 6.46,-3.808 8.69,-5.793 2.27,-2.019 3.97,-3.594 5.14,-4.746 l -16.83,-18.5547 c -1.4,1.1637 -3.04,2.4137 -4.92,3.7697 -1.87,1.367 -3.97,2.617 -6.3,3.769 -2.29,1.164 -4.84,2.141 -7.61,2.891 -2.78,0.793 -5.7,1.172 -8.79,1.172 -2.06,0 -4.1,-0.32 -6.1,-0.977 -1.98,-0.644 -3.81,-1.511 -5.41,-2.597 -1.62,-1.114 -2.89,-2.383 -3.87,-3.867 -0.95,-1.485 -1.45,-3.067 -1.45,-4.7349 0,-4.3867 2.34,-7.9218 6.96,-10.6367 4.65,-2.7148 11.02,-4.9414 19.14,-6.7578 4.76,-1.1523 9.45,-2.7344 14.01,-4.7266 4.58,-2.0117 8.65,-4.6172 12.26,-7.832 3.6,-3.2305 6.51,-7.1875 8.72,-11.8945 2.16,-4.6953 3.26,-10.3907 3.26,-17.0899 0,-5.7812 -1.29,-11.1406 -3.85,-16.0429 -2.58,-4.8946 -6.1,-9.1407 -10.53,-12.7539 -4.45,-3.61333 -9.66,-6.39849 -15.66,-8.39067 -6,-2.01172 -12.46,-3.007817 -19.42,-3.007817 -6.44,0 -12.3,0.617187 -17.6,1.835937 -5.26,1.22266 -10.02,2.83203 -14.29,4.82422 -4.24,2.00391 -8.08,4.28903 -11.51,6.86723 -3.41,2.5781 -6.32,5.2148 -8.79,7.9296 l 18.78,20.2813"
         style="fill:#231f20;fill-opacity:1;fill-rule:nonzero;stroke:none"
         id="path3764"
         inkscape:connector-curvature="0" /><path
         d="M 2453.73,106.672 H 2412 v 25.691 h 112.65 V 106.672 H 2483.1 V 3.48828 h -29.37 V 106.672"
         style="fill:#231f20;fill-opacity:1;fill-rule:nonzero;stroke:none"
         id="path3766"
         inkscape:connector-curvature="0" /><path
         d="m 2546.69,132.363 h 29.19 V 3.48828 h -29.19 V 132.363"
         style="fill:#231f20;fill-opacity:1;fill-rule:nonzero;stroke:none"
         id="path3768"
         inkscape:connector-curvature="0" /><path
         d="m 2721.62,27.2461 c -2.71,-3.7305 -5.99,-7.2461 -9.87,-10.5273 -3.85,-3.2813 -8.15,-6.1524 -12.84,-8.5938 -4.72,-2.46094 -9.81,-4.375 -15.26,-5.80078 -5.49,-1.425782 -11.19,-2.128907 -17.13,-2.128907 -9.77,0 -18.73,1.679687 -26.86,5.039067 -8.09,3.33984 -15.09,8.00002 -20.95,13.98442 -5.88,5.996 -10.41,13.0859 -13.63,21.2695 -3.2,8.1836 -4.83,17.168 -4.83,26.9531 0,9.5234 1.63,18.457 4.83,26.7578 3.22,8.3208 7.75,15.5278 13.63,21.6598 5.86,6.114 12.87,10.938 21.06,14.485 8.17,3.535 17.22,5.301 27.14,5.301 12,0 22.47,-2.188 31.42,-6.563 8.94,-4.375 16.37,-10.691 22.31,-18.926 l -19.9,-19.1404 c -3.85,5.4219 -8.46,9.7654 -13.7,13.0474 -5.31,3.281 -11.62,4.921 -18.96,4.921 -5.8,0 -11.01,-1.054 -15.64,-3.183 -4.65,-2.129 -8.58,-5.067 -11.8,-8.7971 -3.21,-3.7226 -5.7,-8.0781 -7.43,-13.0391 -1.75,-4.9609 -2.61,-10.2148 -2.61,-15.75 0,-5.664 0.86,-10.9492 2.61,-15.8515 1.73,-4.8828 4.22,-9.1485 7.43,-12.7422 3.22,-3.6055 7.1,-6.457 11.58,-8.5078 4.53,-2.0703 9.61,-3.0938 15.29,-3.0938 4.63,0 8.64,0.4766 12.06,1.4532 3.41,0.9687 6.45,2.2461 9.11,3.8671 2.62,1.6016 4.97,3.4688 7.03,5.6055 2.06,2.1211 4.07,4.2695 6.01,6.4649 l 19.9,-18.1641"
         style="fill:#231f20;fill-opacity:1;fill-rule:nonzero;stroke:none"
         id="path3770"
         inkscape:connector-curvature="0" /><path
         d="m 2751.75,41.9336 c 1.69,-1.8047 3.65,-3.6406 5.91,-5.5156 2.24,-1.8555 4.77,-3.5547 7.53,-5.1094 2.75,-1.543 5.78,-2.8125 9.08,-3.7578 3.28,-0.9688 6.8,-1.457 10.53,-1.457 2.19,0 4.37,0.3242 6.56,0.957 2.19,0.6445 4.21,1.582 6.01,2.8047 1.81,1.2187 3.26,2.7031 4.35,4.4414 1.08,1.7578 1.64,3.7031 1.64,5.8984 0,4.7656 -2.32,8.4766 -6.97,11.1133 -4.64,2.6367 -11.98,5.2539 -22.01,7.832 -4.92,1.1524 -9.44,2.8242 -13.64,5.0196 -4.17,2.1875 -7.8,4.8242 -10.81,7.9218 -3.04,3.0743 -5.38,6.6289 -7.06,10.6328 -1.68,3.9844 -2.52,8.4297 -2.52,13.3321 0,5.4101 0.98,10.4961 2.89,15.2811 1.93,4.746 4.86,8.965 8.81,12.637 3.92,3.672 8.81,6.582 14.68,8.703 5.86,2.117 12.78,3.191 20.78,3.191 6.57,0 12.38,-0.671 17.4,-2.031 5.03,-1.355 9.29,-2.969 12.85,-4.832 3.53,-1.875 6.42,-3.808 8.69,-5.793 2.27,-2.019 3.97,-3.594 5.13,-4.746 l -16.8,-18.5547 c -1.44,1.1637 -3.08,2.4137 -4.92,3.7697 -1.91,1.367 -4,2.617 -6.3,3.769 -2.32,1.164 -4.86,2.141 -7.64,2.891 -2.79,0.793 -5.71,1.172 -8.8,1.172 -2.07,0 -4.1,-0.32 -6.09,-0.977 -1.99,-0.644 -3.81,-1.511 -5.4,-2.597 -1.63,-1.114 -2.89,-2.383 -3.88,-3.867 -0.96,-1.485 -1.43,-3.067 -1.43,-4.7349 0,-4.3867 2.29,-7.9218 6.95,-10.6367 4.62,-2.7148 11.02,-4.9414 19.12,-6.7578 4.77,-1.1523 9.45,-2.7344 14.03,-4.7266 4.57,-2.0117 8.66,-4.6172 12.26,-7.832 3.61,-3.2305 6.52,-7.1875 8.69,-11.8945 2.21,-4.6953 3.28,-10.3907 3.28,-17.0899 0,-5.7812 -1.28,-11.1406 -3.84,-16.0429 -2.59,-4.8946 -6.1,-9.1407 -10.55,-12.7539 -4.43,-3.61333 -9.65,-6.39849 -15.65,-8.39067 -5.99,-2.01172 -12.47,-3.007817 -19.44,-3.007817 -6.44,0 -12.3,0.617187 -17.58,1.835937 -5.27,1.22266 -10.04,2.83203 -14.29,4.82422 -4.23,2.00391 -8.09,4.28903 -11.5,6.86723 -3.41,2.5781 -6.33,5.2148 -8.8,7.9296 l 18.75,20.2813"
         style="fill:#231f20;fill-opacity:1;fill-rule:nonzero;stroke:none"
         id="path3772"
         inkscape:connector-curvature="0" /><path
         d="m 1232.76,357.258 c -4.71,-7.598 -10.67,-13.262 -17.76,-17.051 -7.08,-3.781 -14.88,-6.301 -23.39,-7.453 -8.54,-1.199 -16.33,-1.785 -23.5,-1.785 h -63.85 v 112.187 h 63.85 c 7.17,0 14.96,-0.715 23.5,-2.07 8.51,-1.445 16.31,-4.074 23.39,-7.891 7.09,-3.789 13.05,-9.308 17.76,-16.679 4.73,-7.305 7.08,-16.875 7.08,-28.692 0,-12.824 -2.35,-22.98 -7.08,-30.566 z m -128.5,268.461 h 54.63 c 6.65,0 13.38,-0.852 20.25,-2.492 6.88,-1.664 13.03,-4.375 18.47,-8.172 5.44,-3.801 9.81,-9.094 13.17,-15.969 3.31,-6.867 4.95,-15.336 4.95,-25.188 0,-18.039 -5.81,-30.71 -17.4,-38.015 -11.61,-7.375 -24.77,-11.043 -39.44,-11.043 h -54.63 z m 253.51,-202.387 c -6.66,13.223 -14.69,24.551 -24.12,34.082 -9.51,9.441 -19.7,17.031 -30.58,22.684 -10.89,5.742 -20.83,9.961 -29.79,12.812 7.09,2.36 14.68,6.371 22.7,12.035 8.02,5.715 15.54,12.668 22.42,20.973 6.81,8.324 12.53,17.91 17.02,28.785 4.46,10.883 6.72,23.188 6.72,36.938 0,14.601 -2.5,29.429 -7.42,44.39 -5.03,14.899 -13.89,28.133 -26.63,39.742 -12.82,11.594 -30.1,21.047 -51.92,28.422 -21.77,7.289 -49.17,11.024 -82.32,11.024 H 981.559 V 241.477 h 192.291 c 63.42,0 111.6,10.75 144.55,32.304 32.85,21.532 49.31,55.977 49.31,103.36 0,17.48 -3.28,32.871 -9.94,46.191"
         style="fill:#231f20;fill-opacity:1;fill-rule:nonzero;stroke:none"
         id="path3774"
         inkscape:connector-curvature="0" /><path
         d="m 1650.61,610.762 c -73.68,0 -116.49,-58.676 -116.49,-131.375 0,-72.696 42.65,-131.348 116.49,-131.348 73.83,0 116.48,58.652 116.48,131.348 0,72.699 -42.81,131.375 -116.48,131.375 z M 1404.15,479.387 c 0,160.801 120.79,248.617 246.46,248.617 125.65,0 246.46,-87.816 246.46,-248.617 0,-160.274 -119.47,-249.356 -246.46,-249.356 -127.01,0 -246.46,89.082 -246.46,249.356"
         style="fill:#231f20;fill-opacity:1;fill-rule:nonzero;stroke:none"
         id="path3776"
         inkscape:connector-curvature="0" /><path
         d="m 2269.15,512.105 -63.29,-97.308 v -0.051 h 82.39 v -45.379 c -13.32,-9.531 -26.98,-16.125 -41.22,-19.922 -14.17,-3.789 -29.14,-5.656 -44.76,-5.656 -19.41,0 -36.93,3.156 -52.54,9.524 -15.62,6.445 -28.87,15.398 -39.73,26.972 -10.97,11.621 -19.49,25.645 -25.58,41.961 -6.14,16.328 -9.24,34.66 -9.24,55 0,18.469 2.79,35.859 8.52,52.266 5.67,16.308 13.82,30.504 24.5,42.59 10.65,12.031 23.76,21.609 39.38,28.781 15.67,7.086 33.64,10.594 53.98,10.594 22.26,0 41.8,-4.727 58.64,-14.172 15.23,-8.602 29.72,-19.414 43.23,-32.422 l 65.74,101.07 c -19.13,18.75 -41.25,32.938 -66.36,42.461 -34.38,13.031 -71.17,19.551 -110.5,19.551 -36.43,0 -69.73,-6.164 -99.73,-18.488 -30.08,-12.313 -56.05,-29.399 -77.81,-51.454 -21.79,-21.992 -38.68,-48.265 -50.79,-78.843 -12.09,-30.563 -18.09,-63.77 -18.09,-99.793 0,-38.301 5.58,-72.91 16.67,-103.672 11.18,-30.793 27.36,-56.895 48.69,-78.457 21.27,-21.555 47.19,-38.156 77.76,-49.766 30.57,-11.562 65,-17.414 103.3,-17.414 36.95,0 73.73,5.391 110.5,16.055 36.64,10.605 69.22,28 97.62,52.219 v 213.753 h -131.28"
         style="fill:#231f20;fill-opacity:1;fill-rule:nonzero;stroke:none"
         id="path3778"
         inkscape:connector-curvature="0" /><path
         d="m 2603.8,350.168 v 80.957 h 176.83 v 102.25 H 2603.8 v 73.164 h 215.13 v 108.68 H 2478.06 V 241.477 h 355.86 V 350.168 H 2603.8"
         style="fill:#231f20;fill-opacity:1;fill-rule:nonzero;stroke:none"
         id="path3780"
         inkscape:connector-curvature="0" /><path
         d="M 821.863,3.56641 H 0 V 825.434 H 821.863 V 3.56641"
         style="fill:#ed1c24;fill-opacity:1;fill-rule:nonzero;stroke:none"
         id="path3782"
         inkscape:connector-curvature="0" /><path
         d="m 472.25,547.98 c -0.039,-18.457 -15.094,-33.386 -33.523,-33.367 H 225.879 v 66.922 l 213.059,0.02 c 18.48,-0.098 33.39,-15.098 33.312,-33.575"
         style="fill:#ffffff;fill-opacity:1;fill-rule:nonzero;stroke:none"
         id="path3784"
         inkscape:connector-curvature="0" /><path
         d="M 605.113,280.273 C 604.809,187.949 529.691,113.332 437.324,113.684 H 225.879 v 66.882 l 211.672,-0.039 c 55.402,-0.183 100.461,44.551 100.691,100 0.188,53.379 -41.402,97.188 -93.969,100.469 -1.992,0.156 -3.996,0.227 -6.015,0.227 l -212.379,0.175 v 2.207 64.368 l 212.594,-0.203 c 2.074,0 4.16,0.027 6.207,0.144 52.531,3 94.285,46.516 94.484,99.852 0.184,55.41 -44.594,100.441 -99.965,100.636 l -213.32,0.059 v 66.852 l 213.574,-0.016 C 531.77,714.953 606.371,639.855 606.047,547.5 605.852,492.887 579.508,444.477 538.883,414.125 c 40.41,-30.648 66.445,-79.223 66.23,-133.852"
         style="fill:#ffffff;fill-opacity:1;fill-rule:nonzero;stroke:none"
         id="path3786"
         inkscape:connector-curvature="0" /><path
         d="M 471.352,280.754 C 471.27,262.305 456.27,247.363 437.797,247.441 l -211.918,0.09 v 66.883 h 212.144 c 18.457,-0.066 33.403,-15.164 33.329,-33.66"
         style="fill:#ffffff;fill-opacity:1;fill-rule:nonzero;stroke:none"
         id="path3788"
         inkscape:connector-curvature="0" /></g></g></svg>