<?xml version="1.0" encoding="UTF-8" standalone="no"?>
<svg
   xmlns:dc="http://purl.org/dc/elements/1.1/"
   xmlns:cc="http://creativecommons.org/ns#"
   xmlns:rdf="http://www.w3.org/1999/02/22-rdf-syntax-ns#"
   xmlns:svg="http://www.w3.org/2000/svg"
   xmlns="http://www.w3.org/2000/svg"
   xmlns:sodipodi="http://sodipodi.sourceforge.net/DTD/sodipodi-0.dtd"
   xmlns:inkscape="http://www.inkscape.org/namespaces/inkscape"
   viewBox="0 0 277.57999 108.88"
   version="1.1"
   id="svg8"
   sodipodi:docname="hs-osnabrueck.svg"
   inkscape:version="0.92.4 5da689c313, 2019-01-14"
   width="277.57999"
   height="108.88">
  <metadata
     id="metadata14">
    <rdf:RDF>
      <cc:Work
         rdf:about="">
        <dc:format>image/svg+xml</dc:format>
        <dc:type
           rdf:resource="http://purl.org/dc/dcmitype/StillImage" />
        <dc:title></dc:title>
      </cc:Work>
    </rdf:RDF>
  </metadata>
  <defs
     id="defs12" />
  <sodipodi:namedview
     pagecolor="#ffffff"
     bordercolor="#666666"
     borderopacity="1"
     objecttolerance="10"
     gridtolerance="10"
     guidetolerance="10"
     inkscape:pageopacity="0"
     inkscape:pageshadow="2"
     inkscape:window-width="1916"
     inkscape:window-height="1041"
     id="namedview10"
     showgrid="false"
     inkscape:zoom="0.72444444"
     inkscape:cx="55.18074"
     inkscape:cy="41.3"
     inkscape:window-x="1920"
     inkscape:window-y="18"
     inkscape:window-maximized="0"
     inkscape:current-layer="svg8"
     fit-margin-top="0"
     fit-margin-left="0"
     fit-margin-right="0"
     fit-margin-bottom="0" />
  <path
     d="M 175.73,14.82 155.52,22.9 V 6.74 M 121.84,22.9 101.63,14.82 138.68,0 v 16.17"
     id="path2"
     inkscape:connector-curvature="0"
     style="fill:#009fe3" />
  <path
     d="M 121.84,41.77 98.26,32.34 V 16.17 l 23.58,9.43 m 57.26,6.74 V 16.17 L 138.68,32.34 V 48.5"
     id="path4"
     inkscape:connector-curvature="0"
     style="fill:#c6c6c6" />
  <path
     d="m 11.47,73.94 v 14.7 H 9.03 V 82.38 H 2.45 v 6.27 H 0 v -14.7 h 2.45 v 6.46 h 6.58 v -6.46 h 2.44 z m 15.22,6.03 v 2.64 c 0,3.62 -2.43,6.24 -6.08,6.24 -3.58,0 -5.95,-2.63 -5.95,-6.24 v -2.64 c 0,-3.59 2.35,-6.24 5.94,-6.24 3.65,0 6.09,2.65 6.09,6.24 z m -2.45,2.65 v -2.66 c 0,-2.43 -1.37,-4.2 -3.63,-4.2 -2.19,0 -3.49,1.74 -3.49,4.2 v 2.66 c 0,2.47 1.31,4.23 3.5,4.23 2.27,0 3.62,-1.76 3.62,-4.23 z m 14.09,1.26 h 2.45 c -0.29,3.1 -2.23,4.98 -5.63,4.98 -3.48,0 -5.7,-2.48 -5.7,-6.16 v -2.8 c 0,-3.65 2.26,-6.17 5.7,-6.17 3.47,0 5.32,1.81 5.64,5.04 h -2.46 c -0.25,-2.05 -1.12,-3.07 -3.19,-3.07 -2.05,0 -3.26,1.73 -3.26,4.18 v 2.82 c 0,2.49 1.19,4.2 3.26,4.2 2.04,0 2.94,-0.99 3.19,-3.02 z m 17.11,-9.94 v 14.7 H 53 v -6.26 h -6.58 v 6.27 h -2.45 v -14.7 h 2.45 v 6.46 H 53 v -6.46 h 2.44 z m 11.94,10.93 c 0,-1.25 -0.74,-1.95 -3.08,-2.56 -3.36,-0.89 -5.13,-2.16 -5.13,-4.5 0,-2.41 2.11,-4.08 5.26,-4.08 3.28,0 5.39,1.95 5.39,4.49 h -2.45 c 0,-1.54 -1.03,-2.54 -2.96,-2.54 -1.82,0 -2.79,0.85 -2.79,2.1 0,0.58 0.25,1.04 0.77,1.39 0.5,0.36 1.37,0.72 2.61,1.05 3.22,0.88 4.83,2.24 4.83,4.61 0,2.49 -2.09,4.01 -5.33,4.01 -3.14,0 -5.78,-1.67 -5.78,-4.61 h 2.45 c 0,1.82 1.31,2.67 3.33,2.67 1.85,0.01 2.88,-0.75 2.88,-2.03 z m 13.9,-0.99 h 2.45 c -0.29,3.1 -2.23,4.98 -5.63,4.98 -3.48,0 -5.7,-2.48 -5.7,-6.16 v -2.8 c 0,-3.65 2.26,-6.17 5.7,-6.17 3.47,0 5.32,1.81 5.64,5.04 H 81.29 C 81.04,76.72 80.17,75.7 78.1,75.7 c -2.05,0 -3.26,1.73 -3.26,4.18 v 2.82 c 0,2.49 1.19,4.2 3.26,4.2 2.03,0 2.92,-0.99 3.18,-3.02 z m 17.1,-9.94 v 14.7 h -2.44 v -6.26 h -6.58 v 6.27 h -2.45 v -14.7 h 2.45 v 6.46 h 6.58 v -6.46 h 2.44 z m 12.76,0 h 2.45 v 9.85 c 0,3.32 -2.26,5.06 -5.76,5.06 -3.43,0 -5.65,-1.74 -5.65,-5.06 v -9.85 h 2.45 v 9.85 c 0,2.1 1.21,3.1 3.2,3.1 2.06,0 3.31,-1 3.31,-3.1 z m 8.66,0 v 12.74 h 7.03 v 1.96 h -9.48 v -14.7 z m 18.88,6.13 v 1.96 h -6.43 v 4.66 h 7.46 v 1.96 h -9.92 v -14.7 h 9.84 v 1.97 h -7.39 v 4.15 z m 23.41,-0.1 v 2.64 c 0,3.62 -2.43,6.24 -6.08,6.24 -3.58,0 -5.95,-2.63 -5.95,-6.24 v -2.64 c 0,-3.59 2.35,-6.24 5.94,-6.24 3.65,0 6.09,2.65 6.09,6.24 z m -2.45,2.65 v -2.66 c 0,-2.43 -1.37,-4.2 -3.63,-4.2 -2.19,0 -3.5,1.74 -3.5,4.2 v 2.66 c 0,2.47 1.31,4.23 3.51,4.23 2.26,0 3.62,-1.76 3.62,-4.23 z m 13.67,2.25 c 0,-1.25 -0.74,-1.95 -3.08,-2.56 -3.36,-0.89 -5.13,-2.16 -5.13,-4.5 0,-2.41 2.11,-4.08 5.26,-4.08 3.28,0 5.39,1.95 5.39,4.49 h -2.46 c 0,-1.54 -1.03,-2.54 -2.96,-2.54 -1.82,0 -2.79,0.85 -2.79,2.1 0,0.58 0.25,1.04 0.77,1.39 0.5,0.36 1.37,0.72 2.61,1.05 3.22,0.88 4.83,2.24 4.83,4.61 0,2.49 -2.09,4.01 -5.33,4.01 -3.14,0 -5.78,-1.67 -5.78,-4.61 h 2.46 c 0,1.82 1.31,2.67 3.33,2.67 1.85,0.01 2.88,-0.75 2.88,-2.03 z m 17.21,-10.93 v 14.7 h -2.44 l -6.55,-10.77 -0.03,0.01 v 10.76 h -2.45 v -14.7 h 2.45 l 6.55,10.76 0.03,-0.01 V 73.94 Z m 13.04,14.7 -1.2,-3.51 h -5.66 l -1.21,3.51 H 193 l 5.4,-14.7 h 2.33 l 5.33,14.7 z m -4.04,-11.73 -2.15,6.25 h 4.32 l -2.14,-6.25 z m 14.59,11.73 h -5.58 v -14.7 h 4.93 c 3.3,0 5.15,1.29 5.15,4.01 0,1.34 -0.79,2.42 -2.12,2.94 v 0.03 c 1.73,0.37 2.67,1.76 2.67,3.51 0,2.81 -1.81,4.21 -5.05,4.21 z m -3.13,-12.73 v 4.22 h 2.74 c 1.54,0 2.43,-0.7 2.43,-2.07 0,-1.49 -0.88,-2.15 -2.69,-2.15 z m 3.37,6.05 h -3.37 v 4.72 h 3.13 c 1.7,0 2.61,-0.81 2.61,-2.26 -0.01,-1.58 -0.72,-2.46 -2.37,-2.46 z m 18.7,-3.72 c 0,1.81 -0.88,3.11 -2.48,3.83 l 3.33,6.38 v 0.19 h -2.7 l -2.94,-5.92 h -3.21 v 5.92 h -2.45 v -14.7 h 5.3 c 3.34,0 5.15,1.51 5.15,4.3 z m -8,-2.33 v 4.83 h 2.86 c 1.81,0 2.69,-0.85 2.69,-2.42 0,-1.51 -0.85,-2.41 -2.7,-2.41 z m 20.43,-1.97 h 2.45 v 9.85 c 0,3.32 -2.26,5.06 -5.76,5.06 -3.43,0 -5.65,-1.74 -5.65,-5.06 v -9.85 h 2.45 v 9.85 c 0,2.1 1.21,3.1 3.2,3.1 2.06,0 3.31,-1 3.31,-3.1 z m -4.27,-3.62 v 2.16 h -2.43 v -2.16 z m 4.49,0 v 2.16 h -2.45 v -2.16 z m 14.44,13.56 h 2.45 c -0.29,3.1 -2.23,4.98 -5.63,4.98 -3.48,0 -5.7,-2.48 -5.7,-6.16 v -2.8 c 0,-3.65 2.26,-6.17 5.7,-6.17 3.47,0 5.32,1.81 5.64,5.04 h -2.45 c -0.26,-2.05 -1.12,-3.07 -3.19,-3.07 -2.05,0 -3.26,1.73 -3.26,4.18 v 2.82 c 0,2.49 1.19,4.2 3.26,4.2 2.03,0 2.93,-0.99 3.18,-3.02 z m 14.31,4.76 -4.72,-6.46 -1.5,1.67 v 4.79 h -2.45 v -14.7 h 2.45 v 6.8 l 5.79,-6.8 h 2.91 l -5.51,6.37 6.16,8.32 h -3.13 z M 35.94,100.11 h 0.71 v 5.85 c 0,1.92 -1.22,2.91 -3.11,2.91 -1.86,0 -3.07,-0.99 -3.07,-2.91 v -5.85 h 0.71 v 5.85 c 0,1.5 0.93,2.31 2.35,2.31 1.45,0 2.41,-0.81 2.41,-2.31 z m 9.79,0 v 8.64 h -0.71 l -4.92,-7.46 -0.02,0.01 v 7.45 h -0.71 v -8.64 h 0.71 l 4.92,7.45 0.02,-0.01 v -7.44 z m 4.1,0 v 8.64 h -0.71 v -8.64 z m 3.25,0 2.59,7.18 0.18,0.61 h 0.02 l 0.18,-0.61 2.6,-7.18 h 0.76 l -3.21,8.64 h -0.68 l -3.21,-8.64 z m 13.16,3.85 v 0.6 h -4.16 v 3.58 h 4.76 v 0.6 h -5.47 v -8.64 h 5.44 v 0.6 h -4.73 v 3.25 h 4.16 z m 9.08,-1.41 c 0,1.07 -0.66,1.91 -1.68,2.21 l 2.13,3.89 v 0.1 h -0.78 l -2.04,-3.83 h -2.66 v 3.83 h -0.71 v -8.63 h 2.94 c 1.76,0 2.8,0.86 2.8,2.43 z m -5.04,-1.83 v 3.6 h 2.39 c 1.26,0 1.93,-0.72 1.93,-1.77 0,-1.14 -0.74,-1.82 -2.09,-1.82 h -2.23 z m 12.86,5.91 c 0,-0.97 -0.59,-1.48 -2.37,-1.94 -1.93,-0.48 -2.88,-1.15 -2.88,-2.46 0,-1.34 1.18,-2.23 2.91,-2.23 1.81,0 2.98,1.1 2.98,2.58 h -0.71 c 0,-1.18 -0.85,-1.98 -2.28,-1.98 -1.41,0 -2.21,0.68 -2.21,1.61 0,0.88 0.6,1.41 2.4,1.86 1.89,0.48 2.85,1.21 2.85,2.56 0,1.41 -1.22,2.25 -3,2.25 -1.76,0 -3.23,-0.86 -3.23,-2.58 h 0.71 c 0,1.37 1.13,1.98 2.53,1.98 1.4,-0.01 2.3,-0.65 2.3,-1.65 z m 4.44,-6.52 v 8.64 h -0.71 v -8.64 z m 9,0 v 0.6 h -2.93 v 8.03 h -0.71 v -8.03 h -2.93 v -0.6 z m 2.07,0 2.66,4.8 2.67,-4.8 h 0.82 l -3.15,5.48 v 3.15 h -0.71 v -3.2 l -3.13,-5.44 h 0.84 z m 18.01,3.62 v 1.4 c 0,2.22 -1.32,3.74 -3.38,3.74 -2.02,0 -3.33,-1.51 -3.33,-3.74 v -1.4 c 0,-2.22 1.3,-3.74 3.32,-3.74 2.06,0 3.39,1.53 3.39,3.74 z m -0.71,1.41 v -1.42 c 0,-1.85 -1,-3.11 -2.68,-3.11 -1.64,0 -2.61,1.26 -2.61,3.11 v 1.42 c 0,1.87 0.98,3.12 2.62,3.12 1.68,-0.01 2.67,-1.25 2.67,-3.12 z m 8.14,-1.04 v 0.61 h -4.2 v 4.05 h -0.71 v -8.64 h 5.51 v 0.6 h -4.8 v 3.38 z m 11.82,4.65 -0.9,-2.44 h -3.94 l -0.9,2.44 h -0.73 l 3.28,-8.64 h 0.67 l 3.26,8.64 z m -2.85,-7.77 -1.76,4.72 h 3.49 z m 8.52,4.18 h -2.27 v 3.59 h -0.71 v -8.64 h 2.97 c 1.85,0 2.85,0.98 2.85,2.52 0.01,1.57 -0.99,2.53 -2.84,2.53 z m -2.27,-4.44 v 3.84 h 2.27 c 1.45,0 2.14,-0.79 2.14,-1.91 0,-1.14 -0.69,-1.93 -2.14,-1.93 z m 10.15,4.44 h -2.27 v 3.59 h -0.71 v -8.64 h 2.97 c 1.85,0 2.85,0.98 2.85,2.52 0.01,1.57 -0.99,2.53 -2.84,2.53 z m -2.27,-4.44 v 3.84 h 2.27 c 1.45,0 2.14,-0.79 2.14,-1.91 0,-1.14 -0.69,-1.93 -2.14,-1.93 z m 8.13,-0.61 v 8.04 h 4.27 v 0.6 h -4.98 v -8.64 z m 7.59,0 v 8.64 h -0.71 v -8.64 z m 8.25,3.85 v 0.6 H 167 v 3.58 h 4.76 v 0.6 h -5.47 v -8.64 h 5.44 v 0.6 H 167 v 3.25 h 4.16 z m 5.81,4.79 h -2.46 v -8.64 h 2.51 c 2.19,0 3.65,1.51 3.65,3.76 v 1.11 c 0,2.29 -1.45,3.77 -3.7,3.77 z m 0.05,-8.03 h -1.8 v 7.43 h 1.75 c 1.86,0 2.99,-1.26 2.99,-3.16 v -1.13 c 0,-1.9 -1.13,-3.14 -2.94,-3.14 z m 15.29,5.91 c 0,-0.97 -0.59,-1.48 -2.37,-1.94 -1.93,-0.48 -2.88,-1.15 -2.88,-2.46 0,-1.34 1.18,-2.23 2.91,-2.23 1.81,0 2.98,1.1 2.98,2.58 h -0.71 c 0,-1.18 -0.85,-1.98 -2.28,-1.98 -1.41,0 -2.21,0.68 -2.21,1.61 0,0.88 0.61,1.41 2.4,1.86 1.89,0.48 2.85,1.21 2.85,2.56 0,1.41 -1.22,2.25 -3,2.25 -1.76,0 -3.23,-0.86 -3.23,-2.58 h 0.71 c 0,1.37 1.13,1.98 2.53,1.98 1.4,-0.01 2.3,-0.65 2.3,-1.65 z m 8.29,-0.57 h 0.7 c -0.19,1.8 -1.28,2.81 -3.13,2.81 -1.96,0 -3.21,-1.48 -3.21,-3.74 v -1.4 c 0,-2.25 1.25,-3.74 3.21,-3.74 1.87,0 2.95,0.98 3.13,2.82 h -0.7 c -0.19,-1.46 -0.95,-2.21 -2.43,-2.21 -1.54,0 -2.5,1.26 -2.5,3.13 v 1.42 c 0,1.89 0.96,3.14 2.5,3.14 1.49,-0.02 2.24,-0.71 2.43,-2.23 z m 4.33,-5.95 v 8.64 h -0.71 v -8.64 z m 8.26,3.85 v 0.6 h -4.16 v 3.58 h 4.76 v 0.6 h -5.47 v -8.64 h 5.44 v 0.6 h -4.73 v 3.25 h 4.16 z m 9.47,-3.85 v 8.64 h -0.71 l -4.92,-7.46 -0.02,0.01 v 7.45 h -0.71 v -8.64 h 0.71 l 4.93,7.45 0.02,-0.01 v -7.44 z m 8.19,5.95 h 0.7 c -0.19,1.8 -1.28,2.81 -3.13,2.81 -1.96,0 -3.21,-1.48 -3.21,-3.74 v -1.4 c 0,-2.25 1.25,-3.74 3.21,-3.74 1.87,0 2.95,0.98 3.13,2.82 h -0.7 c -0.19,-1.46 -0.95,-2.21 -2.43,-2.21 -1.54,0 -2.5,1.26 -2.5,3.13 v 1.42 c 0,1.89 0.96,3.14 2.5,3.14 1.49,-0.02 2.24,-0.71 2.43,-2.23 z m 7.97,-2.1 v 0.6 h -4.16 v 3.58 h 4.76 v 0.6 h -5.47 v -8.64 h 5.44 v 0.6 h -4.73 v 3.25 h 4.16 z m 7.69,2.67 c 0,-0.97 -0.59,-1.48 -2.37,-1.94 -1.93,-0.48 -2.88,-1.15 -2.88,-2.46 0,-1.34 1.17,-2.23 2.91,-2.23 1.81,0 2.98,1.1 2.98,2.58 h -0.7 c 0,-1.18 -0.85,-1.98 -2.28,-1.98 -1.4,0 -2.2,0.68 -2.2,1.61 0,0.88 0.61,1.41 2.4,1.86 1.89,0.48 2.85,1.21 2.85,2.56 0,1.41 -1.22,2.25 -3,2.25 -1.76,0 -3.23,-0.86 -3.23,-2.58 h 0.71 c 0,1.37 1.13,1.98 2.53,1.98 1.38,-0.01 2.28,-0.65 2.28,-1.65 z"
     id="path6"
     inkscape:connector-curvature="0"
     style="fill:#575756" />
</svg>
