<svg xmlns="http://www.w3.org/2000/svg" width="115.13mm" height="35.95mm" viewBox="0 0 326.35 101.91"><defs><style>.cls-1,.cls-2{fill:#9d9d9c;}.cls-2,.cls-5{fill-rule:evenodd;}.cls-3{fill:#c51a1b;}.cls-4,.cls-5{fill:#706f6f;}</style></defs><title>vacoproReferenzenInoex</title><g id="Ebene_2" data-name="Ebene 2"><g id="Ebene_1-2" data-name="Ebene 1"><polygon class="cls-1" points="40.13 67.54 57.12 67.54 57.12 27.48 57.3 27.48 88.42 67.54 105.41 67.54 105.41 2.17 88.42 2.17 88.42 42.14 88.25 42.14 57.12 2.17 40.13 2.17 40.13 67.54 40.13 67.54"/><path class="cls-2" d="M156.3,0c-18.81,0-36.15,13.87-36.15,33.64,0,21.15,15.17,36.07,36.15,36.07s36.16-14.92,36.16-36.07C192.46,13.87,175.12,0,156.3,0Zm0,16.47c10.15,0,18.47,8.24,18.47,17.26,0,11.27-8.32,19.5-18.47,19.5S137.84,45,137.84,33.73c0-9,8.32-17.26,18.46-17.26Z"/><polygon class="cls-1" points="244.47 16.56 244.47 2.17 207.28 2.17 207.28 67.54 244.47 67.54 244.47 53.15 224.27 53.15 224.27 41.88 243.43 41.88 243.43 27.48 224.27 27.48 224.27 16.56 244.47 16.56 244.47 16.56"/><polygon class="cls-1" points="282.22 32.6 256.64 67.54 277.19 67.54 292.19 46.21 305.89 67.54 326.35 67.54 302.16 32.6 323.06 2.17 302.16 2.17 292.19 19.07 282.22 2.17 261.33 2.17 282.22 32.6 282.22 32.6"/><polygon class="cls-3" points="17.23 2.2 0.24 2.2 0.24 19.2 17.23 19.2 17.23 2.2 17.23 2.2"/><polygon class="cls-1" points="17.23 22.19 0.24 22.19 0.24 67.55 17.23 67.55 17.23 22.19 17.23 22.19"/><polygon class="cls-4" points="4.09 101.66 6.96 101.66 6.96 89.64 11.05 89.64 11.05 87.39 0 87.39 0 89.64 4.09 89.64 4.09 101.66 4.09 101.66"/><polygon class="cls-4" points="15.63 101.66 18.5 101.66 18.5 95.4 24.22 95.4 24.22 101.66 27.09 101.66 27.09 87.39 24.22 87.39 24.22 93.15 18.5 93.15 18.5 87.39 15.63 87.39 15.63 101.66 15.63 101.66"/><polygon class="cls-4" points="33.17 101.66 41.64 101.66 41.64 99.41 36.03 99.41 36.03 95.4 41.13 95.4 41.13 93.15 36.03 93.15 36.03 89.64 41.6 89.64 41.6 87.39 33.17 87.39 33.17 101.66 33.17 101.66"/><polygon class="cls-4" points="55.75 101.66 58.62 101.66 58.62 95.4 63.45 95.4 63.45 93.15 58.62 93.15 58.62 89.64 63.69 89.64 63.69 87.39 55.75 87.39 55.75 101.66 55.75 101.66"/><path class="cls-4" d="M68.65,96.51c0,3.83,2.16,5.4,5.83,5.4s5.83-1.57,5.83-5.4V87.38H77.44v8.25c0,2.43-.77,4-3,4s-3-1.6-3-4V87.38H68.65v9.13Z"/><polygon class="cls-4" points="88.88 101.66 91.75 101.66 91.75 89.64 95.84 89.64 95.84 87.39 84.79 87.39 84.79 89.64 88.88 89.64 88.88 101.66 88.88 101.66"/><path class="cls-4" d="M100.32,96.51c0,3.83,2.17,5.4,5.83,5.4s5.83-1.57,5.83-5.4V87.38h-2.86v8.25c0,2.43-.78,4-3,4s-3-1.6-3-4V87.38h-2.86v9.13Z"/><path class="cls-5" d="M120.58,89.63h.94c1.43,0,3,.15,3,1.87s-1.62,2-3,2h-.94V89.63Zm-2.87,12h2.87V95.73h.92c1.2,0,1.57.41,2,1.48l1.72,4.45h3.19l-2.29-5.58c-.29-.63-.74-1.41-1.51-1.47v0a3.27,3.27,0,0,0,2.94-3.32c0-4-3.66-3.87-6.73-3.87h-3.09v14.28Z"/><polygon class="cls-4" points="133.22 101.66 141.69 101.66 141.69 99.41 136.09 99.41 136.09 95.4 141.18 95.4 141.18 93.15 136.09 93.15 136.09 89.64 141.65 89.64 141.65 87.39 133.22 87.39 133.22 101.66 133.22 101.66"/><path class="cls-5" d="M155.11,94.49c0,4.37,2.42,7.42,7,7.42s7-3.11,7-7.42-2.52-7.35-7-7.35-7,3-7,7.35Zm3,0c0-2.52,1.17-5.1,4-5.1s4,2.58,4,5.1-1.08,5.17-4,5.17-4-2.6-4-5.17Z"/><polygon class="cls-4" points="174.49 101.66 177.35 101.66 177.35 95.4 182.18 95.4 182.18 93.15 177.35 93.15 177.35 89.64 182.43 89.64 182.43 87.39 174.49 87.39 174.49 101.66 174.49 101.66"/><polygon class="cls-4" points="195.93 101.66 204.4 101.66 204.4 99.41 198.8 99.41 198.8 95.4 203.89 95.4 203.89 93.15 198.8 93.15 198.8 89.64 204.36 89.64 204.36 87.39 195.93 87.39 195.93 101.66 195.93 101.66"/><polygon class="cls-4" points="208.62 101.66 211.85 101.66 215.19 96.1 218.48 101.66 221.86 101.66 217.17 94.24 221.47 87.39 218.4 87.39 215.35 92.48 212.36 87.39 209.05 87.39 213.3 94.24 208.62 101.66 208.62 101.66"/><polygon class="cls-4" points="229.08 101.66 231.95 101.66 231.95 89.64 236.04 89.64 236.04 87.39 224.99 87.39 224.99 89.64 229.08 89.64 229.08 101.66 229.08 101.66"/><path class="cls-5" d="M243.24,89.63h.94c1.44,0,3,.15,3,1.87s-1.62,2-3,2h-.94V89.63Zm-2.86,12h2.86V95.73h.92c1.21,0,1.58.41,2,1.48l1.72,4.45h3.19l-2.29-5.58c-.29-.63-.74-1.41-1.52-1.47v0a3.28,3.28,0,0,0,2.95-3.32c0-4-3.66-3.87-6.73-3.87h-3.09v14.28Z"/><path class="cls-4" d="M255.78,96.51c0,3.83,2.17,5.4,5.83,5.4s5.84-1.57,5.84-5.4V87.38h-2.87v8.25c0,2.43-.77,4-3,4s-3-1.6-3-4V87.38h-2.87v9.13Z"/><path class="cls-4" d="M281.36,87.65a10.71,10.71,0,0,0-3.42-.51c-2.51,0-5,1.17-5,4.36,0,4.72,6.26,3.6,6.26,6.32,0,1.29-1.45,1.84-2.54,1.84a6.92,6.92,0,0,1-3.23-.88l-.26,2.58a12.46,12.46,0,0,0,3.66.55c2.88,0,5.36-1.19,5.36-4.32,0-4.78-6.26-3.74-6.26-6.22a2,2,0,0,1,2.25-2,7.53,7.53,0,0,1,2.9.61l.27-2.35Z"/><polygon class="cls-4" points="287.31 101.66 290.18 101.66 290.18 87.39 287.31 87.39 287.31 101.66 287.31 101.66"/><path class="cls-5" d="M295.31,94.49c0,4.37,2.42,7.42,7,7.42s7-3.11,7-7.42-2.52-7.35-7-7.35-7,3-7,7.35Zm3,0c0-2.52,1.17-5.1,4-5.1s4,2.58,4,5.1-1.09,5.17-4,5.17-4-2.6-4-5.17Z"/><polygon class="cls-4" points="314.55 101.66 317.29 101.66 317.29 90.98 317.33 90.98 322.79 101.66 326.29 101.66 326.29 87.39 323.55 87.39 323.55 98.06 323.51 98.06 318.06 87.39 314.55 87.39 314.55 101.66 314.55 101.66"/></g></g></svg>