<?xml version="1.0" encoding="UTF-8" standalone="no"?>
<svg
   xmlns:dc="http://purl.org/dc/elements/1.1/"
   xmlns:cc="http://creativecommons.org/ns#"
   xmlns:rdf="http://www.w3.org/1999/02/22-rdf-syntax-ns#"
   xmlns:svg="http://www.w3.org/2000/svg"
   xmlns="http://www.w3.org/2000/svg"
   xmlns:xlink="http://www.w3.org/1999/xlink"
   xmlns:sodipodi="http://sodipodi.sourceforge.net/DTD/sodipodi-0.dtd"
   xmlns:inkscape="http://www.inkscape.org/namespaces/inkscape"
   id="svg1207"
   xml:space="preserve"
   enable-background="new 0 0 481.89 283.465"
   viewBox="0 0 433.92598 144.912"
   height="144.912"
   width="433.92599"
   y="0px"
   x="0px"
   version="1.1"
   sodipodi:docname="iotec_white.svg"
   inkscape:version="0.92.4 (5da689c313, 2019-01-14)"
   inkscape:export-filename="/home/tictoc/Downloads/_white.png"
   inkscape:export-xdpi="96"
   inkscape:export-ydpi="96"><sodipodi:namedview
   pagecolor="#000000"
   bordercolor="#666666"
   borderopacity="1"
   objecttolerance="10"
   gridtolerance="10"
   guidetolerance="10"
   inkscape:pageopacity="0"
   inkscape:pageshadow="2"
   inkscape:window-width="1916"
   inkscape:window-height="1041"
   id="namedview979"
   showgrid="false"
   inkscape:zoom="0.7697165"
   inkscape:cx="-1.7053026e-13"
   inkscape:cy="72.456001"
   inkscape:window-x="1366"
   inkscape:window-y="18"
   inkscape:window-maximized="0"
   inkscape:current-layer="Logo" /><metadata
   id="metadata1213"><rdf:RDF><cc:Work
       rdf:about=""><dc:format>image/svg+xml</dc:format><dc:type
         rdf:resource="http://purl.org/dc/dcmitype/StillImage" /><dc:title></dc:title></cc:Work></rdf:RDF></metadata><defs
   id="defs1211" />
<g
   transform="translate(-23.788991,-25.476)"
   style="display:none"
   display="none"
   id="Alter_Spruch">
	<path
   style="display:inline;fill:#de1d14"
   id="path1059"
   d="M 760.585,-257.128"
   display="inline" />
	<path
   style="display:inline;fill:#3c3c3b"
   id="path1061"
   d="m 476.338,-88.916 c -1.889,0 -3.419,1.527 -3.419,3.418 0,1.889 1.53,3.42 3.419,3.42 1.251,0 2.334,-0.679 2.93,-1.682 h 12.23 v -1.068 c 0,-4.189 -1.07,-7.43 -3.213,-9.723 -2.143,-2.293 -5.009,-3.438 -8.596,-3.438 -3.512,0 -6.354,1.166 -8.526,3.496 -2.175,2.334 -3.261,5.553 -3.261,9.664 0,4.143 1.122,7.373 3.368,9.689 2.244,2.316 5.216,3.475 8.916,3.475 2.878,0 5.316,-0.705 7.316,-2.113 2,-1.406 3.174,-3.406 3.522,-5.998 H 486.4 c -0.063,1.469 -0.724,2.604 -1.979,3.402 -1.258,0.799 -2.668,1.197 -4.234,1.197 -2.07,0 -3.814,-0.703 -5.229,-2.109 -1.415,-1.406 -2.218,-3.566 -2.406,-6.475 -0.139,-2.129 0.094,-3.51 0.094,-3.51 0.349,-2.434 1.162,-4.248 2.443,-5.441 1.279,-1.195 2.813,-1.791 4.602,-1.791 1.833,0 3.382,0.6 4.646,1.803 1.265,1.199 2.079,3.012 2.443,5.43 h -7.529 c -0.601,-0.984 -1.675,-1.646 -2.913,-1.646 z m 0,5.043 c -0.896,0 -1.625,-0.729 -1.625,-1.625 0,-0.898 0.729,-1.625 1.625,-1.625 0.898,0 1.626,0.727 1.626,1.625 0,0.896 -0.727,1.625 -1.626,1.625 z"
   display="inline" />
	<path
   style="display:inline;fill:#3c3c3b"
   id="path1063"
   d="m 512.858,-89.068 c -1.889,0 -3.42,1.529 -3.42,3.418 0,1.889 1.531,3.422 3.42,3.422 1.25,0 2.334,-0.68 2.93,-1.684 h 12.229 v -1.066 c 0,-4.191 -1.07,-7.43 -3.214,-9.723 -2.142,-2.293 -5.008,-3.439 -8.596,-3.439 -3.51,0 -6.353,1.166 -8.525,3.498 -2.174,2.332 -3.261,5.553 -3.261,9.664 0,4.143 1.122,7.373 3.368,9.688 2.244,2.318 5.216,3.475 8.916,3.475 2.877,0 5.314,-0.703 7.316,-2.111 2,-1.406 3.174,-3.406 3.521,-6 h -4.625 c -0.063,1.471 -0.723,2.605 -1.98,3.404 -1.256,0.797 -2.668,1.197 -4.232,1.197 -2.072,0 -3.814,-0.705 -5.229,-2.109 -1.416,-1.408 -2.219,-3.566 -2.407,-6.477 -0.139,-2.127 0.094,-3.51 0.094,-3.51 0.349,-2.434 1.163,-4.248 2.443,-5.441 1.28,-1.193 2.813,-1.789 4.601,-1.789 1.834,0 3.383,0.6 4.648,1.801 1.264,1.201 2.078,3.012 2.442,5.43 h -7.529 c -0.599,-0.985 -1.673,-1.648 -2.91,-1.648 z m 0,5.043 c -0.897,0 -1.625,-0.727 -1.625,-1.625 0,-0.896 0.728,-1.625 1.625,-1.625 0.897,0 1.625,0.729 1.625,1.625 0,0.898 -0.728,1.625 -1.625,1.625 z"
   display="inline" />
	<g
   style="display:inline"
   id="g1101"
   display="inline">
		<g
   id="g1099">
			<path
   style="fill:#3c3c3b"
   id="path1065"
   d="m 500.206,-72.152 h -4.52 v -35.059 h 4.52 z" />
			<path
   style="fill:#3c3c3b"
   id="path1067"
   d="m 544.374,-71.555 c -3.603,0 -6.484,-1.16 -8.645,-3.48 -2.16,-2.318 -3.24,-5.582 -3.24,-9.791 0,-4.225 1.08,-7.494 3.24,-9.805 2.16,-2.313 5.042,-3.469 8.645,-3.469 2.774,0 5.09,0.703 6.947,2.105 1.857,1.402 2.953,3.428 3.288,6.074 h -4.64 c -0.063,-1.516 -0.633,-2.67 -1.709,-3.469 -1.076,-0.795 -2.371,-1.195 -3.887,-1.195 -2.152,0 -3.897,0.818 -5.236,2.451 -1.34,1.635 -2.009,4.07 -2.009,7.307 0,3.221 0.669,5.648 2.009,7.281 1.339,1.635 3.084,2.451 5.236,2.451 1.516,0 2.811,-0.398 3.887,-1.195 1.076,-0.797 1.646,-1.945 1.709,-3.445 h 4.64 c -0.335,2.648 -1.431,4.674 -3.288,6.076 -1.857,1.402 -4.173,2.104 -6.947,2.104 z" />
			<path
   style="fill:#3c3c3b"
   id="path1069"
   d="m 568.43,-72.105 c -0.988,0.191 -2.064,0.289 -3.228,0.289 -1.851,0 -3.204,-0.332 -4.065,-0.994 -0.861,-0.662 -1.395,-1.51 -1.603,-2.547 -0.207,-1.037 -0.312,-2.447 -0.312,-4.232 v -14.396 h -3.132 v -3.539 h 3.132 v -6.313 h 4.496 v 6.313 h 4.113 v 3.539 h -4.113 v 14.635 c 0,1.738 0.219,2.844 0.658,3.313 0.438,0.471 1.04,0.705 1.805,0.705 0.781,0 1.531,-0.063 2.248,-0.189 v 3.416 z" />
			<path
   style="fill:#3c3c3b"
   id="path1071"
   d="m 585.362,-93.412 c -0.638,-0.191 -1.555,-0.287 -2.75,-0.287 -2.296,0 -4.265,1.203 -5.906,3.611 v 17.936 h -4.52 v -25.373 h 4.52 v 3.539 c 1.896,-2.74 4.097,-4.113 6.6,-4.113 0.638,0 1.323,0.064 2.057,0.193 v 4.494 z" />
			<path
   style="fill:#3c3c3b"
   id="path1073"
   d="m 598.777,-98.1 c 3.619,0 6.509,1.156 8.669,3.469 2.16,2.311 3.24,5.58 3.24,9.805 0,4.209 -1.08,7.473 -3.24,9.791 -2.16,2.32 -5.05,3.48 -8.669,3.48 -3.603,0 -6.484,-1.16 -8.645,-3.48 -2.161,-2.318 -3.24,-5.582 -3.24,-9.791 0,-4.225 1.079,-7.494 3.24,-9.805 2.16,-2.312 5.042,-3.469 8.645,-3.469 z m 0,23.006 c 2.152,0 3.898,-0.816 5.237,-2.451 1.34,-1.633 2.01,-4.061 2.01,-7.281 0,-3.236 -0.67,-5.672 -2.01,-7.307 -1.339,-1.633 -3.085,-2.451 -5.237,-2.451 -2.151,0 -3.897,0.818 -5.237,2.451 -1.339,1.635 -2.008,4.07 -2.008,7.307 0,3.221 0.669,5.648 2.008,7.281 1.339,1.635 3.085,2.451 5.237,2.451 z" />
			<path
   style="fill:#3c3c3b"
   id="path1075"
   d="m 620.251,-94.297 c 2.248,-2.535 4.774,-3.803 7.581,-3.803 5.723,0 8.585,3.117 8.585,9.352 v 16.596 h -4.521 v -16.406 c 0,-2.07 -0.37,-3.563 -1.111,-4.471 -0.742,-0.908 -1.957,-1.363 -3.646,-1.363 -2.296,0 -4.592,1.355 -6.888,4.064 v 18.176 h -4.52 v -25.373 h 4.52 z" />
			<path
   style="fill:#3c3c3b"
   id="path1077"
   d="m 647.489,-102.332 h -4.52 v -4.879 h 4.52 z m 0,30.18 h -4.52 v -25.373 h 4.52 z" />
			<path
   style="fill:#3c3c3b"
   id="path1079"
   d="m 664.42,-71.555 c -3.604,0 -6.484,-1.16 -8.645,-3.48 -2.161,-2.318 -3.24,-5.582 -3.24,-9.791 0,-4.225 1.079,-7.494 3.24,-9.805 2.16,-2.313 5.041,-3.469 8.645,-3.469 2.773,0 5.09,0.703 6.947,2.105 1.856,1.402 2.953,3.428 3.288,6.074 h -4.64 c -0.064,-1.516 -0.634,-2.67 -1.71,-3.469 -1.076,-0.795 -2.372,-1.195 -3.886,-1.195 -2.152,0 -3.898,0.818 -5.237,2.451 -1.339,1.635 -2.009,4.07 -2.009,7.307 0,3.221 0.67,5.648 2.009,7.281 1.339,1.635 3.085,2.451 5.237,2.451 1.514,0 2.81,-0.398 3.886,-1.195 1.076,-0.797 1.646,-1.945 1.71,-3.445 h 4.64 c -0.335,2.648 -1.432,4.674 -3.288,6.076 -1.857,1.403 -4.173,2.104 -6.947,2.104 z" />
			<path
   style="fill:#3c3c3b"
   id="path1081"
   d="m 700.698,-71.555 c -6.935,0 -10.562,-2.727 -10.881,-8.18 h 4.52 c 0.032,3.094 2.137,4.641 6.313,4.641 1.865,0 3.288,-0.387 4.269,-1.16 0.979,-0.773 1.471,-1.742 1.471,-2.904 0,-1.148 -0.479,-1.959 -1.436,-2.428 -0.956,-0.471 -2.93,-1.08 -5.918,-1.83 -2.989,-0.75 -5.174,-1.586 -6.553,-2.512 -1.379,-0.924 -2.068,-2.551 -2.068,-4.877 0,-2.105 0.857,-3.846 2.571,-5.225 1.713,-1.379 4.005,-2.07 6.874,-2.07 6.648,0 10.044,2.369 10.188,7.104 h -4.495 c -0.16,-2.393 -1.953,-3.588 -5.38,-3.588 -1.516,0 -2.771,0.287 -3.768,0.861 -0.996,0.574 -1.494,1.41 -1.494,2.512 0,0.988 0.382,1.701 1.147,2.141 0.766,0.438 2.683,1.027 5.752,1.77 3.068,0.74 5.349,1.605 6.839,2.594 1.49,0.989 2.236,2.693 2.236,5.117 0,2.313 -0.921,4.229 -2.763,5.75 -1.841,1.523 -4.316,2.284 -7.424,2.284 z" />
			<path
   style="fill:#3c3c3b"
   id="path1083"
   d="m 726.404,-98.1 c 3.619,0 6.508,1.156 8.668,3.469 2.16,2.311 3.241,5.58 3.241,9.805 0,4.209 -1.081,7.473 -3.241,9.791 -2.16,2.32 -5.049,3.48 -8.668,3.48 -3.603,0 -6.484,-1.16 -8.645,-3.48 -2.16,-2.318 -3.24,-5.582 -3.24,-9.791 0,-4.225 1.08,-7.494 3.24,-9.805 2.16,-2.312 5.042,-3.469 8.645,-3.469 z m 0,23.006 c 2.152,0 3.898,-0.816 5.237,-2.451 1.339,-1.633 2.009,-4.061 2.009,-7.281 0,-3.236 -0.67,-5.672 -2.009,-7.307 -1.339,-1.633 -3.085,-2.451 -5.237,-2.451 -2.151,0 -3.897,0.818 -5.236,2.451 -1.34,1.635 -2.009,4.07 -2.009,7.307 0,3.221 0.669,5.648 2.009,7.281 1.338,1.635 3.084,2.451 5.236,2.451 z" />
			<path
   style="fill:#3c3c3b"
   id="path1085"
   d="m 747.879,-72.152 h -4.521 v -35.059 h 4.521 z" />
			<path
   style="fill:#3c3c3b"
   id="path1087"
   d="m 770.596,-75.381 c -2.248,2.551 -4.774,3.826 -7.581,3.826 -5.724,0 -8.585,-3.125 -8.585,-9.375 v -16.596 h 4.521 v 16.404 c 0,2.074 0.366,3.564 1.1,4.473 0.734,0.909 1.944,1.363 3.635,1.363 2.519,0 4.822,-1.355 6.911,-4.066 v -18.174 h 4.495 v 25.373 h -4.495 v -3.228 z" />
			<path
   style="fill:#3c3c3b"
   id="path1089"
   d="m 791.617,-72.105 c -0.988,0.191 -2.064,0.289 -3.229,0.289 -1.85,0 -3.204,-0.332 -4.064,-0.994 -0.861,-0.662 -1.396,-1.51 -1.603,-2.547 -0.208,-1.037 -0.311,-2.447 -0.311,-4.232 v -14.396 h -3.134 v -3.539 h 3.134 v -6.313 h 4.495 v 6.313 h 4.113 v 3.539 h -4.113 v 14.635 c 0,1.738 0.22,2.844 0.657,3.313 0.438,0.471 1.041,0.705 1.807,0.705 0.78,0 1.53,-0.063 2.247,-0.189 v 3.416 z" />
			<path
   style="fill:#3c3c3b"
   id="path1091"
   d="m 799.891,-102.332 h -4.521 v -4.879 h 4.521 z m 0,30.18 h -4.521 v -25.373 h 4.521 z" />
			<path
   style="fill:#3c3c3b"
   id="path1093"
   d="m 816.822,-98.1 c 3.619,0 6.509,1.156 8.668,3.469 2.16,2.311 3.241,5.58 3.241,9.805 0,4.209 -1.081,7.473 -3.241,9.791 -2.159,2.32 -5.049,3.48 -8.668,3.48 -3.603,0 -6.484,-1.16 -8.645,-3.48 -2.16,-2.318 -3.24,-5.582 -3.24,-9.791 0,-4.225 1.08,-7.494 3.24,-9.805 2.16,-2.312 5.042,-3.469 8.645,-3.469 z m 0,23.006 c 2.152,0 3.898,-0.816 5.237,-2.451 1.339,-1.633 2.009,-4.061 2.009,-7.281 0,-3.236 -0.67,-5.672 -2.009,-7.307 -1.339,-1.633 -3.085,-2.451 -5.237,-2.451 -2.151,0 -3.897,0.818 -5.236,2.451 -1.34,1.635 -2.009,4.07 -2.009,7.307 0,3.221 0.669,5.648 2.009,7.281 1.338,1.635 3.084,2.451 5.236,2.451 z" />
			<path
   style="fill:#3c3c3b"
   id="path1095"
   d="m 838.296,-94.297 c 2.247,-2.535 4.774,-3.803 7.58,-3.803 5.724,0 8.585,3.117 8.585,9.352 v 16.596 h -4.52 v -16.406 c 0,-2.07 -0.371,-3.563 -1.112,-4.471 -0.741,-0.908 -1.957,-1.363 -3.646,-1.363 -2.296,0 -4.591,1.355 -6.887,4.064 v 18.176 h -4.521 v -25.373 h 4.521 z" />
			<path
   style="fill:#3c3c3b"
   id="path1097"
   d="m 870.078,-71.555 c -6.935,0 -10.562,-2.727 -10.881,-8.18 h 4.52 c 0.032,3.094 2.137,4.641 6.313,4.641 1.865,0 3.288,-0.387 4.269,-1.16 0.981,-0.773 1.471,-1.742 1.471,-2.904 0,-1.148 -0.479,-1.959 -1.436,-2.428 -0.956,-0.471 -2.929,-1.08 -5.918,-1.83 -2.989,-0.75 -5.174,-1.586 -6.553,-2.512 -1.379,-0.924 -2.067,-2.551 -2.067,-4.877 0,-2.105 0.856,-3.846 2.57,-5.225 1.713,-1.379 4.006,-2.07 6.875,-2.07 6.647,0 10.043,2.369 10.187,7.104 h -4.495 c -0.16,-2.393 -1.953,-3.588 -5.38,-3.588 -1.516,0 -2.771,0.287 -3.768,0.861 -0.996,0.574 -1.494,1.41 -1.494,2.512 0,0.988 0.383,1.701 1.147,2.141 0.766,0.438 2.683,1.027 5.752,1.77 3.068,0.74 5.349,1.605 6.839,2.594 1.49,0.989 2.236,2.693 2.236,5.117 0,2.313 -0.921,4.229 -2.763,5.75 -1.841,1.523 -4.315,2.284 -7.424,2.284 z" />
		</g>
	</g>
</g>

<g
   transform="translate(-23.788991,-25.476)"
   id="Logo">
	<g
   id="g1136"
   style="fill:#ffffff;fill-opacity:1">
		<defs
   id="defs1129">
			<path
   d="m 250.645,80.229 c 4.199,0 7.359,1.407 9.487,4.222 2.125,2.814 3.188,7.27 3.188,13.365 0,11.621 -4.199,17.432 -12.597,17.432 h -9.021 c -8.398,0 -12.597,-5.811 -12.597,-17.432 0,-6.096 1.049,-10.551 3.149,-13.365 2.099,-2.814 5.274,-4.222 9.525,-4.222 z m -6.461,-9.48 c -16.288,0 -24.458,8.931 -24.51,26.793 v 0.234 c 0,17.967 8.144,26.949 24.431,26.949 h 4.216 c 16.286,0 24.429,-8.982 24.429,-26.949 V 97.542 C 272.595,79.68 264.425,70.749 248.241,70.749 Z"
   id="SVGID_1_" />
		</defs>
		<use
   height="100%"
   width="100%"
   y="0"
   x="0"
   style="overflow:visible;fill:#ffffff;fill-opacity:1"
   id="use1131"
   overflow="visible"
   xlink:href="#SVGID_1_" />
		<clipPath
   id="SVGID_2_">
			<use
   height="100%"
   width="100%"
   y="0"
   x="0"
   style="overflow:visible"
   id="use1133"
   overflow="visible"
   xlink:href="#SVGID_1_" />
		</clipPath>
	</g>
	<g
   id="g1158">
		<defs
   id="defs1139">
			<polygon
   points="310.345,32.579 310.345,162.896 167.327,162.896 167.327,32.579 "
   id="SVGID_3_" />
		</defs>
		<defs
   id="defs1142">
			<polygon
   points="310.345,162.896 30.993,162.896 30.993,32.579 310.345,32.579 "
   id="SVGID_4_" />
		</defs>
		<clipPath
   id="SVGID_5_">
			<use
   height="100%"
   width="100%"
   y="0"
   x="0"
   style="overflow:visible"
   id="use1144"
   overflow="visible"
   xlink:href="#SVGID_3_" />
		</clipPath>
		<clipPath
   clip-path="url(#SVGID_5_)"
   id="SVGID_6_">
			<use
   height="100%"
   width="100%"
   y="0"
   x="0"
   style="overflow:visible"
   id="use1147"
   overflow="visible"
   xlink:href="#SVGID_4_" />
		</clipPath>
		<g
   id="g1156"
   clip-path="url(#SVGID_6_)">
			<defs
   id="defs1151">
				<rect
   height="130.56"
   width="143.28101"
   y="32.540001"
   x="167.187"
   id="SVGID_7_" />
			</defs>
			<clipPath
   id="SVGID_8_">
				<use
   height="100%"
   width="100%"
   y="0"
   x="0"
   style="overflow:visible"
   id="use1153"
   overflow="visible"
   xlink:href="#SVGID_7_" />
			</clipPath>
		</g>
	</g>
	<g
   id="g1180">
		<defs
   id="defs1161">
			<polygon
   points="174.679,32.579 174.679,162.896 30.993,162.896 30.993,32.579 "
   id="SVGID_9_" />
		</defs>
		<defs
   id="defs1164">
			<polygon
   points="310.345,162.896 30.993,162.896 30.993,32.579 310.345,32.579 "
   id="SVGID_10_" />
		</defs>
		<clipPath
   id="SVGID_11_">
			<use
   height="100%"
   width="100%"
   y="0"
   x="0"
   style="overflow:visible"
   id="use1166"
   overflow="visible"
   xlink:href="#SVGID_9_" />
		</clipPath>
		<clipPath
   clip-path="url(#SVGID_11_)"
   id="SVGID_12_">
			<use
   height="100%"
   width="100%"
   y="0"
   x="0"
   style="overflow:visible"
   id="use1169"
   overflow="visible"
   xlink:href="#SVGID_10_" />
		</clipPath>
		<g
   id="g1178"
   clip-path="url(#SVGID_12_)">
			<defs
   id="defs1173">
				<rect
   height="130.56"
   width="144"
   y="32.540001"
   x="30.867001"
   id="SVGID_13_" />
			</defs>
			<clipPath
   id="SVGID_14_">
				<use
   height="100%"
   width="100%"
   y="0"
   x="0"
   style="overflow:visible"
   id="use1175"
   overflow="visible"
   xlink:href="#SVGID_13_" />
			</clipPath>
		</g>
	</g>
	<path
   style="fill:#00a13a"
   id="path1182"
   d="M 289.873,53.765 C 278.075,41.972 262.438,35.477 245.846,35.477 h -0.175 c -16.686,0 -32.355,6.495 -44.125,18.287 l -33.4,35.96 12.447,12.014 34.551,-34.381 c 8.131,-8.146 18.983,-12.635 30.552,-12.635 11.557,0 22.417,4.488 30.581,12.638 8.139,8.14 12.627,18.993 12.642,30.563 -0.015,11.568 -4.503,22.426 -12.638,30.579 -8.146,8.155 -19.007,12.647 -30.585,12.647 -10.405,0 -20.441,-3.738 -28.261,-10.523 l -1.005,-0.871 0.067,-1.328 c 0.014,-0.283 0.023,-0.571 0.023,-0.861 0,-8.724 -7.098,-15.82 -15.822,-15.82 -8.723,0 -15.819,7.097 -15.819,15.82 0,8.725 7.097,15.82 15.819,15.82 0.311,0 0.618,-0.012 0.924,-0.027 l 1.145,-0.064 0.848,0.775 c 11.512,10.523 26.456,16.318 42.081,16.318 16.687,0 32.376,-6.494 44.179,-18.289 11.787,-11.792 18.279,-27.48 18.279,-44.173 -10e-4,-16.683 -6.493,-32.366 -18.281,-44.161 z m -88.839,81.737 c -4.508,0 -8.161,-3.654 -8.161,-8.161 0,-4.508 3.653,-8.162 8.161,-8.162 4.508,0 8.16,3.654 8.16,8.162 0,4.507 -3.652,8.161 -8.16,8.161 z" />
	<path
   style="fill:#ffffff;fill-opacity:1"
   id="path1184"
   d="m 160.626,97.106 -33.859,31.433 c -8.136,8.131 -18.975,12.609 -30.523,12.609 -11.57,0 -22.43,-4.492 -30.574,-12.646 -8.15,-8.141 -12.639,-19.002 -12.639,-30.578 0,-11.566 4.488,-22.422 12.641,-30.564 8.139,-8.149 18.996,-12.639 30.572,-12.639 10.324,0 20.313,3.693 28.124,10.399 l 1.063,0.913 -0.122,1.396 c -0.044,0.504 -0.065,0.959 -0.065,1.392 0,8.725 7.097,15.821 15.82,15.821 8.723,0 15.82,-7.097 15.82,-15.821 0,-8.723 -7.098,-15.82 -15.82,-15.82 l -1.422,0.026 -0.805,-0.751 c -11.602,-10.834 -26.725,-16.8 -42.582,-16.8 h -0.176 c -16.582,0 -32.209,6.495 -44,18.289 -11.804,11.804 -18.299,27.488 -18.29,44.159 -0.009,16.676 6.487,32.363 18.29,44.176 11.781,11.793 27.465,18.287 44.164,18.287 16.674,0 32.358,-6.494 44.164,-18.289 L 173.17,108.894 Z M 141.565,60.899 c 4.508,0 8.162,3.654 8.162,8.161 0,4.507 -3.654,8.161 -8.162,8.161 -4.506,0 -8.16,-3.654 -8.16,-8.161 0,-4.507 3.655,-8.161 8.16,-8.161 z" />
	<g
   style="fill:#ffffff;fill-opacity:1"
   id="g1192">
		<g
   style="fill:#ffffff;fill-opacity:1"
   id="g1190">
			<path
   style="fill:#ffffff;fill-opacity:1"
   id="path1186"
   d="m 344.903,123.267 c -1.974,0.381 -4.121,0.572 -6.443,0.572 -3.692,0 -6.396,-0.66 -8.114,-1.98 -1.719,-1.32 -2.785,-3.016 -3.198,-5.084 -0.414,-2.068 -0.621,-4.885 -0.621,-8.448 V 79.593 h -6.252 v -7.064 h 6.252 V 59.927 h 8.974 v 12.602 h 8.21 v 7.064 h -8.21 v 29.211 c 0,3.469 0.438,5.672 1.313,6.61 0.875,0.938 2.076,1.408 3.604,1.408 1.559,0 3.055,-0.127 4.486,-0.382 v 6.827 z" />
			<path
   style="fill:#ffffff;fill-opacity:1"
   id="path1188"
   d="m 427.287,124.364 c -7.192,0 -12.943,-2.314 -17.255,-6.945 -4.313,-4.63 -6.468,-11.146 -6.468,-19.546 0,-8.433 2.155,-14.956 6.468,-19.569 4.312,-4.613 10.063,-6.922 17.255,-6.922 5.536,0 10.158,1.401 13.865,4.201 3.707,2.801 5.896,6.842 6.563,12.123 h -9.26 c -0.128,-3.022 -1.265,-5.329 -3.413,-6.921 -2.147,-1.591 -4.733,-2.386 -7.756,-2.386 -4.296,0 -7.78,1.631 -10.453,4.892 -2.673,3.263 -4.01,8.122 -4.01,14.582 0,6.429 1.337,11.272 4.01,14.534 2.673,3.262 6.157,4.893 10.453,4.893 3.022,0 5.608,-0.795 7.756,-2.387 2.148,-1.591 3.285,-3.882 3.413,-6.873 h 9.26 c -0.668,5.282 -2.856,9.324 -6.563,12.123 -3.707,2.801 -8.329,4.201 -13.865,4.201 z" />
		</g>
	</g>
	<g
   id="g1196"
   style="fill:#ffffff;fill-opacity:1">
		<path
   style="fill:#ffffff;fill-opacity:1"
   id="path1194"
   d="m 101.758,123.025 c 0,0.779 -0.638,1.417 -1.417,1.417 h -6.595 c -0.78,0 -1.417,-0.638 -1.417,-1.417 V 85.15 c 0,-0.779 0.638,-1.417 1.417,-1.417 h 6.595 c 0.78,0 1.417,0.638 1.417,1.417 z" />
	</g>
	<g
   id="g1200"
   style="fill:#ffffff;fill-opacity:1">
		<path
   style="fill:#ffffff;fill-opacity:1"
   id="path1198"
   d="m 101.758,75.322 c 0,0.779 -0.638,1.417 -1.417,1.417 h -6.595 c -0.78,0 -1.417,-0.638 -1.417,-1.417 v -4.086 c 0,-0.779 0.638,-1.417 1.417,-1.417 h 6.595 c 0.78,0 1.417,0.638 1.417,1.417 z" />
	</g>
	<path
   style="fill:#ffffff;fill-opacity:1"
   id="path1202"
   d="m 366.18,89.641 c -3.802,0 -6.883,3.081 -6.883,6.882 0,3.801 3.081,6.883 6.883,6.883 2.521,0 4.721,-1.361 5.919,-3.385 h 24.593 v -2.147 c 0,-8.433 -2.156,-14.956 -6.468,-19.569 -4.312,-4.613 -10.079,-6.922 -17.302,-6.922 -7.064,0 -12.785,2.348 -17.159,7.041 -4.376,4.693 -6.563,11.178 -6.563,19.45 0,8.337 2.259,14.837 6.778,19.498 4.518,4.663 10.5,6.993 17.946,6.993 5.791,0 10.699,-1.416 14.725,-4.248 4.026,-2.832 6.389,-6.857 7.089,-12.076 h -9.308 c -0.128,2.959 -1.456,5.242 -3.985,6.85 -2.53,1.606 -5.37,2.41 -8.521,2.41 -4.169,0 -7.677,-1.416 -10.524,-4.248 -2.849,-2.832 -4.463,-7.176 -4.845,-13.031 -0.279,-4.283 0.19,-7.064 0.19,-7.064 0.7,-4.899 2.339,-8.551 4.917,-10.953 2.577,-2.402 5.663,-3.604 9.26,-3.604 3.69,0 6.809,1.209 9.354,3.627 2.545,2.418 4.185,6.063 4.917,10.93 h -15.137 c -1.206,-1.987 -3.383,-3.317 -5.876,-3.317 z m 0,10.247 c -1.858,0 -3.366,-1.507 -3.366,-3.365 0,-1.858 1.508,-3.365 3.366,-3.365 1.858,0 3.365,1.507 3.365,3.365 0,1.858 -1.507,3.365 -3.365,3.365 z" />
	
		<line
   style="display:none;fill:#ffffff;stroke:#c91517;stroke-width:3;stroke-miterlimit:10"
   y2="-192.78999"
   x2="1044.9449"
   y1="-192.78999"
   x1="376.44501"
   stroke-miterlimit="10"
   display="none"
   id="Ausrichtung_1_" />
	
		<line
   style="display:none;fill:none;stroke:#c91517;stroke-width:3;stroke-miterlimit:10"
   y2="58.731998"
   x2="674.08502"
   y1="-304.79999"
   x1="674.08502"
   stroke-miterlimit="10"
   display="none"
   id="Ausrichtung" />
</g>
</svg>