<?xml version="1.0" encoding="UTF-8" standalone="no"?>
<!-- Generator: Adobe Illustrator 19.1.0, SVG Export Plug-In . SVG Version: 6.00 Build 0)  -->

<svg
   xmlns:dc="http://purl.org/dc/elements/1.1/"
   xmlns:cc="http://creativecommons.org/ns#"
   xmlns:rdf="http://www.w3.org/1999/02/22-rdf-syntax-ns#"
   xmlns:svg="http://www.w3.org/2000/svg"
   xmlns="http://www.w3.org/2000/svg"
   xmlns:sodipodi="http://sodipodi.sourceforge.net/DTD/sodipodi-0.dtd"
   xmlns:inkscape="http://www.inkscape.org/namespaces/inkscape"
   version="1.1"
   id="Layer_1"
   x="0px"
   y="0px"
   viewBox="0 0 239.7 57.615917"
   xml:space="preserve"
   sodipodi:docname="lemken2.svg"
   width="239.7"
   height="57.615917"
   inkscape:version="0.92.4 5da689c313, 2019-01-14"><metadata
   id="metadata80"><rdf:RDF><cc:Work
       rdf:about=""><dc:format>image/svg+xml</dc:format><dc:type
         rdf:resource="http://purl.org/dc/dcmitype/StillImage" /><dc:title></dc:title></cc:Work></rdf:RDF></metadata><defs
   id="defs78" /><sodipodi:namedview
   pagecolor="#ffffff"
   bordercolor="#666666"
   borderopacity="1"
   objecttolerance="10"
   gridtolerance="10"
   guidetolerance="10"
   inkscape:pageopacity="0"
   inkscape:pageshadow="2"
   inkscape:window-width="1916"
   inkscape:window-height="1041"
   id="namedview76"
   showgrid="false"
   fit-margin-top="0"
   fit-margin-left="0"
   fit-margin-right="0"
   fit-margin-bottom="0"
   inkscape:zoom="7.1916667"
   inkscape:cx="119.9"
   inkscape:cy="29.012806"
   inkscape:window-x="1920"
   inkscape:window-y="18"
   inkscape:window-maximized="0"
   inkscape:current-layer="Layer_1" />
<style
   type="text/css"
   id="style10">
	.st0{fill:#169DD9;}
</style>
<g
   id="CStEdE_1_"
   transform="translate(-0.1,-1.3968893)">
	<g
   id="g72">
		<path
   d="m 239.8,49.7 c -0.2,0.7 -0.5,1.3 -0.5,2.1 0,0.8 -0.1,1.5 -0.1,2.3 0,0.1 0,0.3 0,0.4 0,0.4 0.1,0.8 0.1,1.2 0,0.4 0.1,0.9 0.3,1.3 0.1,0.2 0.1,0.5 0.1,0.7 0,0.4 -0.3,0.5 -0.7,0.3 -0.3,-0.2 -0.4,-0.5 -0.4,-0.8 -0.2,-1.6 -0.3,-3.2 -0.2,-4.8 0,-0.1 0,-0.2 0,-0.2 0.1,-0.2 0,-0.2 -0.2,-0.2 -1.1,0.2 -1.9,-0.3 -2.6,-1 -0.6,-0.5 -0.9,-1.1 -1.1,-1.8 -0.1,-0.4 -0.1,-0.9 -0.2,-1.3 0,-0.1 0.1,-0.2 0.1,-0.2 0.1,-0.3 0.2,-0.5 0.5,-0.4 0.3,0.1 0.3,0.3 0.4,0.5 0,0.4 0.1,0.9 0.1,1.3 0.1,0.5 0.4,0.9 0.8,1.2 0.5,0.4 1,0.7 1.7,0.7 0.4,0 0.5,0 0.5,-0.5 0.1,-0.9 0.2,-1.7 0.3,-2.6 0,-0.2 0,-0.4 0,-0.6 -0.1,-0.4 0.2,-0.7 0.3,-1.1 0.1,-0.3 0.4,-0.1 0.7,-0.2 0.1,1.2 0.1,2.5 0.1,3.7 z"
   id="path12"
   inkscape:connector-curvature="0" />
		<path
   class="st0"
   d="m 97,18.8 c 0,-4.5 0,-9.1 0,-13.6 0,-0.9 -0.1,-0.8 0.8,-0.8 3.7,0 7.5,0 11.2,0 0.6,0 0.6,-0.1 0.9,0.6 1.1,3.6 2.3,7.1 3.4,10.6 0.3,1.1 0.7,2.1 1.1,3.2 0,0.1 0.1,0.2 0.1,0.2 0.1,-0.1 0.1,-0.1 0.2,-0.2 0.3,-0.9 0.6,-1.9 0.9,-2.8 1.2,-3.7 2.4,-7.3 3.7,-11 0.3,-0.8 0.1,-0.7 1,-0.7 3.7,0 7.3,0 11,0 0,0 0.1,0 0.1,0 0.8,0 0.8,0 0.8,0.7 0,8.9 0,17.8 0,26.7 0,0.3 0,0.6 0,0.9 0,0.5 0,0.5 -0.5,0.5 -1,0 -1.9,0 -2.9,0 -2,0 -4.1,0 -6.1,0 -0.1,0 -0.3,0 -0.4,0 -0.2,0 -0.3,-0.1 -0.3,-0.3 0,-0.2 0,-0.3 0,-0.5 0,-3.9 0,-7.8 0,-11.7 0,-0.2 0,-0.4 -0.1,-0.6 -0.1,0.2 -0.2,0.4 -0.3,0.6 -1,3.1 -2,6.3 -3,9.4 -1.3,3.9 -2.5,7.7 -3.8,11.6 0,0 0,0.1 0,0.1 -0.1,0.2 -0.2,0.3 -0.3,0.5 -0.1,-0.2 -0.2,-0.3 -0.2,-0.5 -0.9,-2.6 -1.7,-5.1 -2.6,-7.7 -0.9,-2.7 -1.8,-5.4 -2.7,-8.1 -0.6,-1.9 -1.3,-3.8 -1.9,-5.6 0,-0.1 0,-0.1 -0.1,-0.2 0,-0.1 -0.1,-0.1 -0.1,-0.1 0,0 -0.1,0.1 -0.1,0.1 0,0.2 0,0.3 0,0.5 0,3.8 0,7.6 0,11.5 0,0.1 0,0.3 0,0.4 0,0.6 0,0.6 -0.6,0.6 -2.9,0 -5.8,0 -8.7,0 -0.7,0 -0.7,0 -0.7,-0.7 0.2,-4.4 0.2,-9 0.2,-13.6 0,0 0,0 0,0 z"
   id="path14"
   inkscape:connector-curvature="0"
   style="fill:#169dd9" />
		<path
   class="st0"
   d="m 192.2,18.8 c 0,-4.6 0,-9.1 0,-13.7 0,-0.8 0,-0.7 0.7,-0.7 2.9,0 5.9,0 8.8,0 0.5,0 0.7,0.1 0.9,0.5 2.3,3.8 4.6,7.6 7,11.4 0.1,0.1 0.2,0.3 0.2,0.4 0,0 0.1,0 0.1,0.1 0,0 0.1,-0.1 0.1,-0.1 0,-0.1 0,-0.3 0,-0.4 0,-3.7 0,-7.3 0,-11 0,-0.1 0,-0.2 0,-0.3 0,-0.4 0,-0.5 0.5,-0.5 0.7,0 1.4,0 2.1,0 2.2,0 4.5,0 6.7,0 0.1,0 0.3,0 0.4,0 0.2,0 0.3,0.1 0.3,0.4 0,0.1 0,0.3 0,0.4 0,9.1 0,18.2 0,27.4 0,0.8 0,0.8 -0.7,0.8 -2.9,0 -5.7,0 -8.6,0 -0.5,0 -0.8,-0.1 -1,-0.5 -2.4,-3.9 -4.9,-7.7 -7.3,-11.6 -0.1,-0.1 -0.2,-0.3 -0.3,-0.4 0,0.2 -0.1,0.3 -0.1,0.5 0,3.7 0,7.5 0,11.2 0,0.8 0,0.8 -0.8,0.8 -2.8,0 -5.5,0 -8.3,0 -0.8,0 -0.8,0 -0.8,-0.7 0.1,-4.9 0.1,-9.5 0.1,-14 z"
   id="path16"
   inkscape:connector-curvature="0"
   style="fill:#169dd9" />
		<path
   class="st0"
   d="m 135.6,18.9 c 0,-4.6 0,-9.1 0,-13.7 0,-0.8 0,-0.8 0.8,-0.8 3,0 6,0 9,0 0.1,0 0.2,0 0.3,0 0.4,0 0.4,0 0.4,0.5 0,0.1 0,0.3 0,0.4 0,4.1 0,8.2 0,12.3 0,0.1 0,0.3 0,0.4 0,0.1 0.1,0.2 0.1,0.3 0.1,-0.1 0.1,-0.1 0.2,-0.2 1.3,-2.4 2.6,-4.7 3.9,-7.1 1.1,-2 2.2,-4 3.3,-6 0.2,-0.4 0.5,-0.6 1,-0.6 3.3,0 6.6,0 9.9,0 0.2,0 0.4,0.1 0.6,0.1 -0.1,0.2 -0.1,0.3 -0.2,0.5 -1.8,3.2 -3.6,6.4 -5.4,9.6 -0.7,1.2 -1.3,2.3 -2,3.5 -0.2,0.3 -0.2,0.6 0,0.9 2.9,4.5 5.7,9 8.6,13.5 0.1,0.1 0.1,0.2 0.2,0.3 0.1,0.1 0.1,0.3 0.2,0.4 -0.1,0 -0.3,0 -0.4,0 -3.6,0 -7.1,0 -10.7,0 -0.5,0 -0.8,-0.2 -1.1,-0.6 -2.5,-4.5 -5.1,-9 -7.7,-13.5 -0.1,-0.2 -0.2,-0.3 -0.3,-0.4 0,0.2 -0.1,0.3 -0.1,0.5 0,4.5 0,8.9 0,13.4 0,0.9 0.1,0.8 -0.8,0.8 -2.9,0 -5.8,0 -8.7,0 -1,0 -1,0.1 -1,-0.9 -0.1,-4.5 -0.1,-9.1 -0.1,-13.6 z"
   id="path18"
   inkscape:connector-curvature="0"
   style="fill:#169dd9" />
		<path
   class="st0"
   d="m 72.1,18.7 c 0,-4.5 0,-9 0,-13.5 0,-0.1 0,-0.3 0,-0.4 0,-0.5 0,-0.5 0.5,-0.5 1.5,0 3,0 4.5,0 5.4,0 10.8,0 16.2,0 0.8,0 0.8,0 0.8,0.8 0,1.8 0,3.6 0,5.4 0,0.1 0,0.3 0,0.4 0,0.2 -0.1,0.3 -0.3,0.3 -0.2,0 -0.3,0 -0.5,0 -3.3,0 -6.7,0 -10,0 -0.1,0 -0.3,0 -0.4,0 -0.2,0 -0.3,0.1 -0.3,0.3 0,1.1 0,2.2 0,3.3 0,0.2 0.1,0.3 0.3,0.3 0.1,0 0.3,0 0.4,0 3.3,0 6.7,0 10,0 0.1,0 0.3,0 0.4,0 0.5,0 0.5,0 0.5,0.5 0,2 0,4.1 0,6.1 0,0.5 0,0.5 -0.5,0.5 -2.4,0 -4.8,0 -7.1,0 -1.1,0 -2.3,0 -3.4,0 -0.5,0 -0.5,0 -0.5,0.6 0,0.9 0,1.9 0,2.8 0,0.6 0,0.6 0.6,0.6 3.4,0 6.8,0 10.2,0 0.9,0 0.8,0 0.8,0.9 0,1.8 0,3.5 0,5.3 0,0.1 0,0.3 0,0.4 0,0.3 -0.1,0.4 -0.4,0.4 -0.5,0 -1,0 -1.4,0 -6.5,0 -13,0 -19.5,0 -0.1,0 -0.3,0 -0.4,0 -0.2,0 -0.3,-0.1 -0.3,-0.3 0,-0.1 0,-0.3 0,-0.4 -0.2,-4.6 -0.2,-9.2 -0.2,-13.8 z"
   id="path20"
   inkscape:connector-curvature="0"
   style="fill:#169dd9" />
		<path
   class="st0"
   d="m 167.3,18.7 c 0,-4.5 0,-9.1 0,-13.6 0,-0.1 0,-0.2 0,-0.3 0,-0.4 0.1,-0.4 0.5,-0.5 0.1,0 0.2,0 0.3,0 6.8,0 13.6,0 20.4,0 0.9,0 0.8,0 0.8,0.8 0,1.8 0,3.6 0,5.4 0,0.7 0,0.7 -0.7,0.7 -3.2,0 -6.5,0 -9.7,0 -0.2,0 -0.4,0 -0.6,0 -0.7,0 -0.7,0 -0.7,0.7 0,0.9 0,1.7 0,2.6 0,0.7 0,0.7 0.6,0.7 2.7,0 5.4,0 8.1,0 0.8,0 1.5,0 2.3,0 0.6,0 0.6,0 0.6,0.6 0,2 0,3.9 0,5.9 0,0.6 0,0.6 -0.6,0.6 -2.7,0 -5.5,0 -8.2,0 -0.8,0 -1.5,0 -2.3,0 -0.5,0 -0.5,0 -0.5,0.5 0,1 0,2 0,2.9 0,0.5 0,0.5 0.6,0.5 2.9,0 5.8,0 8.6,0 0.7,0 1.3,0 2,0 0.4,0 0.4,0 0.4,0.4 0,2 0,4 0,6.1 0,0.4 0,0.5 -0.5,0.5 -2,0 -3.9,0 -5.9,0 -4.9,0 -9.8,0 -14.7,0 -0.8,0 -0.8,0 -0.8,-0.9 0,-4.5 0,-9 0,-13.6 z"
   id="path22"
   inkscape:connector-curvature="0"
   style="fill:#169dd9" />
		<path
   class="st0"
   d="m 49.8,18.7 c 0,-4.5 0,-9 0,-13.5 0,-0.1 0,-0.2 0,-0.3 0,-0.6 0,-0.6 0.6,-0.6 2.8,0 5.6,0 8.3,0 0.6,0 0.6,0 0.6,0.6 0,6.8 0,13.7 0,20.5 0,1 -0.1,0.8 0.8,0.8 2.8,0 5.7,0 8.5,0 0.1,0 0.2,0 0.3,0 0.3,0 0.4,0.1 0.4,0.4 0,0.5 0,0.9 0,1.4 0,1.5 0,3 0,4.6 0,0.6 0,0.6 -0.6,0.6 -4.7,0 -9.4,0 -14,0 -1.4,0 -2.9,0 -4.3,0 -0.6,0 -0.6,0 -0.6,-0.6 0,-4.6 0,-9.2 0,-13.9 z"
   id="path24"
   inkscape:connector-curvature="0"
   style="fill:#169dd9" />
		<path
   class="st0"
   d="m 33.4,28 c -1.6,-0.2 -3.3,-0.3 -4.9,-0.5 -0.8,-0.1 -1.5,-0.1 -2.3,-0.2 -0.3,0 -0.5,0.1 -0.5,0.4 0,0.3 -0.3,0.4 -0.5,0.4 -0.2,0 -0.3,0 -0.5,0 -7.9,0 -15.9,0 -23.8,0 -0.2,0 -0.4,0 -0.6,0 C 0.2,28.1 0.2,28 0.1,28 0.2,28 0.2,27.9 0.3,27.9 1.5,27.4 2.7,26.8 4,26.3 c 2.1,-1 4.1,-2 6,-3.3 2.7,-1.8 4.9,-3.9 6.5,-6.8 0.7,-1.2 1.4,-2.4 2.2,-3.6 1.5,-2.3 3.6,-3.7 6.1,-4.5 1.9,-0.6 3.8,-1 5.7,-1.2 1.6,-0.2 3.2,-0.3 4.9,-0.1 1.5,0.1 2.9,0.2 4.4,0.4 1.4,0.2 2.7,0.8 3.6,1.9 0.5,0.6 0.7,1.4 0.8,2.2 0.1,0.5 -0.1,1 -0.4,1.5 -0.6,1 -1.4,1.7 -2.3,2.4 -2.7,2.2 -5.6,4.1 -8.8,5.6 -1.7,0.8 -3.4,1.6 -5.1,2.5 -0.2,0.1 -0.4,0.2 -0.5,0.3 C 27,23.7 27,23.8 27,24 c 0,0.1 0.2,0.2 0.3,0.2 0.5,0.1 0.9,0.1 1.4,0.2 1.9,0.2 3.8,0.3 5.7,0.5 0.5,0 0.5,0.1 0.4,0.5 -0.1,0.8 -0.2,1.5 -0.3,2.3 -0.1,0.5 0,0.5 -0.6,0.5 -0.4,-0.3 -0.5,-0.3 -0.5,-0.2 0,-0.1 0,0 0,0 z m -8.8,-6.9 c 0,0.1 0,0.1 0,0 0.3,0 0.5,-0.1 0.8,-0.2 2.3,-1.1 4.5,-2.1 6.8,-3.2 1.3,-0.6 2.5,-1.4 3.7,-2.2 1.5,-1 2.8,-2.1 4.2,-3.2 0.3,-0.2 0.6,-0.5 0.8,-0.8 0.5,-0.6 0.3,-1.4 -0.5,-1.7 C 39.8,9.6 39.2,9.5 38.6,9.4 37.2,9.3 35.8,9.3 34.4,9.3 c -1.1,0 -2.3,0 -3.4,0.1 -1.3,0 -2.6,0.2 -3.9,0.6 -1.6,0.5 -3.2,1.1 -4.5,2.2 -0.7,0.6 -1.3,1.2 -1.7,2 -1.1,1.7 -2.2,3.4 -3.3,5.1 -0.6,0.9 -0.7,0.8 0.5,1 1.6,0.2 3.2,0.4 4.8,0.6 0.5,0.1 1.1,0.2 1.7,0.2 z m -7.5,4.3 c 0,-0.1 0,-0.1 0,0 1.7,0 3.4,-0.1 5.1,0 1.1,0 1,0.1 1.2,-1.1 0.1,-0.4 0.1,-0.4 -0.3,-0.5 -2.8,-0.3 -5.5,-0.5 -8.3,-0.8 -0.2,0 -0.4,0 -0.6,0.2 -0.9,0.6 -1.8,1.3 -2.7,1.9 -0.1,0.1 -0.1,0.2 -0.2,0.2 0.1,0 0.2,0.1 0.3,0.1 1.8,0 3.6,0 5.5,0 z"
   id="path26"
   inkscape:connector-curvature="0"
   style="fill:#169dd9" />
		<path
   class="st0"
   d="M 23.1,36.1 C 18.7,36 14.7,34.6 11.4,31.6 10.6,30.9 10,30.1 9.3,29.4 9.2,29.3 9.2,29.2 9.1,29 c 0.1,0 0.3,-0.1 0.4,-0.1 0.9,0 1.8,0 2.6,0 0.3,0 0.5,0.1 0.7,0.3 1.2,1.2 2.6,2.2 4.2,2.9 1.2,0.5 2.4,0.9 3.6,1.1 2.5,0.5 4.9,0.2 7.3,-0.6 3.8,-1.3 6.6,-3.8 8.4,-7.4 0.7,-1.4 1.2,-3 1.4,-4.6 0.1,-0.6 0.1,-1.2 0.1,-1.9 0,-0.3 0.1,-0.4 0.3,-0.6 0.7,-0.4 1.3,-0.8 2,-1.3 0.2,-0.1 0.3,-0.1 0.3,0.2 0,1 0.1,1.9 0.1,2.9 -0.1,1.2 -0.3,2.4 -0.6,3.6 -0.8,2.6 -2.1,5 -3.9,7 -1.8,1.9 -3.9,3.4 -6.3,4.3 -2.1,0.9 -4.3,1.3 -6.6,1.3 z"
   id="path28"
   inkscape:connector-curvature="0"
   style="fill:#169dd9" />
		<path
   class="st0"
   d="m 8.4,18.8 c 0.1,1 0.3,2.1 0.4,3.1 0,0.3 0.1,0.4 -0.2,0.6 C 8,22.8 7.4,23.1 6.7,23.4 6.3,23.6 6.3,23.6 6.2,23.1 6,22.2 5.8,21.3 5.7,20.3 c -0.2,-2.1 0,-4.1 0.5,-6.1 1.1,-3.9 3.3,-7.1 6.6,-9.5 1.8,-1.3 3.9,-2.3 6.1,-2.8 2.6,-0.6 5.2,-0.7 7.8,-0.1 2.6,0.5 5,1.6 7.1,3.2 0.2,0.1 0.3,0.3 0.5,0.5 -0.2,0.1 -0.5,0.1 -0.7,0.1 -1,0.1 -2.1,0.1 -3.1,0.1 -0.4,0 -0.7,-0.1 -1,-0.3 C 28.1,4.7 26.6,4.2 25,4.1 23.7,4 22.3,4 20.8,4.3 19,4.6 17.4,5.2 15.8,6.1 12.3,8.1 10.1,11.1 9,15 8.7,16.2 8.5,17.5 8.4,18.8 Z"
   id="path30"
   inkscape:connector-curvature="0"
   style="fill:#169dd9" />
		<path
   d="m 96.9,48.8 c 0,-0.8 0,-1.6 0,-2.4 0,-0.5 0,-0.5 -0.5,-0.4 -0.7,0.1 -1.5,0.2 -2.2,0.2 -0.1,0 -0.3,0.1 -0.4,0.1 -0.2,0 -0.3,0.2 -0.3,0.3 0.1,0.7 0.2,1.4 0.3,2.2 0,0.1 0.1,0.2 0.1,0.3 0.1,0.7 0.1,1.4 0.2,2 0,0.2 0,0.3 0.1,0.5 0,0.1 0.1,0.3 0.1,0.4 0,0.1 -0.2,0.3 -0.3,0.4 -0.1,0 -0.3,-0.1 -0.4,-0.2 -0.1,-0.3 -0.2,-0.5 -0.3,-0.8 -0.1,-0.3 -0.1,-0.7 -0.2,-1 0,-0.1 0,-0.3 -0.1,-0.4 -0.1,-0.7 -0.1,-1.5 -0.2,-2.2 0,-0.3 -0.1,-0.7 -0.2,-1 0,-0.1 -0.1,-0.2 -0.2,-0.2 -0.9,0 -1.7,-0.1 -2.6,0.3 -0.4,0.2 -0.8,0.3 -1.2,0 -0.1,-0.1 -0.3,-0.3 -0.3,-0.4 -0.1,-0.3 0,-0.5 0.4,-0.5 1.5,-0.2 3,-0.3 4.4,-0.4 0.6,0 1.3,-0.2 1.9,-0.2 0.3,0 0.5,-0.1 0.8,-0.1 0.2,0 0.4,-0.1 0.7,-0.1 0.3,0 0.4,-0.2 0.4,-0.5 0,-0.2 0,-0.4 0,-0.6 0,-0.2 0.2,-0.4 0.4,-0.3 0.3,0 0.3,0.2 0.3,0.4 0,0.3 0,0.5 0.1,0.8 0.3,0 0.5,0 0.8,-0.1 0.8,-0.1 1.6,-0.2 2.4,-0.3 0.7,-0.1 1.4,-0.1 2.1,-0.1 0.3,0 0.6,0.2 0.5,0.4 -0.1,0.2 -0.2,0.5 -0.4,0.5 -0.3,0 -0.7,0.4 -1,0.1 -0.1,-0.1 -0.2,0 -0.3,0 -0.8,0.1 -1.6,0 -2.4,0.2 -0.4,0.1 -0.9,0.1 -1.4,0.2 -0.3,0 -0.4,0.1 -0.4,0.4 0,1.2 0,2.5 0,3.7 0,0 0,0.1 0.1,0.1 0,0 0.1,-0.1 0.1,-0.1 0.3,-0.4 0.7,-0.8 1,-1.2 0.3,-0.3 0.6,-0.6 1,-0.8 0.4,-0.3 1,-0.4 1.5,-0.4 0.5,0 0.8,0.3 1,0.8 0.2,0.5 0.3,1 0.4,1.5 0,0.2 0,0.4 0,0.6 0,0.3 -0.1,0.7 -0.1,1 0,0.3 -0.1,0.5 -0.4,0.5 -0.3,0 -0.4,-0.1 -0.5,-0.4 0,-0.2 -0.1,-0.4 0,-0.7 0,-0.6 0.1,-1.1 -0.1,-1.7 -0.1,-0.2 -0.2,-0.3 -0.3,-0.5 -0.1,-0.2 -0.3,-0.2 -0.6,-0.2 -1.2,0.4 -1.9,1.2 -2.5,2.2 -0.2,0.3 -0.3,0.7 -0.5,1 -0.1,0.2 -0.3,0.3 -0.5,0.4 -0.2,0.1 -0.4,-0.1 -0.4,-0.3 0,-0.1 0,-0.3 0,-0.4 0.1,-1 0.1,-1.8 0.1,-2.6 z"
   id="path32"
   inkscape:connector-curvature="0" />
		<path
   d="m 129.5,59 c -1,0.1 -1.8,-0.4 -2.6,-1 -0.3,-0.2 -0.6,-0.6 -0.7,-1 -0.1,-0.3 -0.2,-0.5 -0.3,-0.8 -0.1,-0.2 -0.1,-0.5 0,-0.7 0,-0.2 0.3,-0.2 0.4,0 0.1,0.2 0.2,0.4 0.3,0.6 0.4,1.2 1.3,1.7 2.4,1.9 0.2,0 0.4,0 0.6,0 1.2,0.1 1.9,-0.6 2.1,-1.6 0.2,-1 0.5,-2 0.5,-3.1 -0.1,-0.8 -0.2,-1.6 -0.3,-2.3 -0.1,-0.4 -0.1,-0.9 -0.3,-1.2 -0.1,-0.1 -0.1,-0.2 -0.3,0 -0.3,0.5 -0.7,1 -1.2,1.3 -0.3,0.2 -0.6,0.4 -0.9,0.5 -1,0.3 -2.1,-0.5 -2.1,-1.4 0,-1.4 0.8,-2.1 1.7,-2.8 0.6,-0.4 1.2,-0.6 1.9,-0.6 0.6,0 1.1,0.3 1.4,0.8 0.3,0.3 0.3,0.6 0.2,1.1 -0.1,0.5 0,1 0.1,1.5 0.2,0.5 0.2,1 0.3,1.5 0.1,0.6 0.2,1.3 0.2,2 0,0.1 0,0.3 0,0.4 -0.1,0.8 -0.2,1.6 -0.4,2.5 -0.2,0.7 -0.5,1.3 -0.9,1.8 -0.5,0.5 -1.2,0.6 -2.1,0.6 z m 1,-11.4 c -1,0.1 -1.7,0.6 -2.3,1.4 -0.2,0.2 -0.3,0.6 -0.3,0.9 -0.1,0.3 0.2,0.6 0.5,0.6 0.2,0 0.4,0 0.6,-0.1 1,-0.4 1.7,-1.1 2.1,-2.2 0.1,-0.5 0.2,-0.5 -0.3,-0.5 -0.2,0 -0.2,0 -0.3,-0.1 z"
   id="path34"
   inkscape:connector-curvature="0" />
		<path
   d="m 202.2,48.3 c 0,0.6 0,1.2 -0.1,1.9 0,0.1 0,0.2 0,0.2 0,-0.1 0.1,-0.1 0.1,-0.2 0.1,-0.4 0.2,-0.9 0.2,-1.3 0.1,-0.6 0.2,-1.1 0.4,-1.7 0.1,-0.4 0.5,-0.5 0.8,-0.1 0.4,0.6 0.8,1.1 0.9,1.9 0,0.6 0.2,1.3 0.4,1.9 0,0.2 0.2,0.2 0.3,0.1 0.4,-0.5 0.9,-1.1 1.2,-1.6 0.3,-0.5 0.5,-1 0.9,-1.4 0.3,-0.4 0.8,-0.7 1.2,-1 0.2,-0.2 0.5,-0.1 0.7,0.1 0.3,0.4 0.6,0.8 0.9,1.2 0.4,0.7 0.8,1.3 1.5,1.7 0.1,0.1 0.3,0.2 0.4,0.3 0.2,0.2 0.3,0.5 0.2,0.8 -0.1,0.3 -0.4,0.3 -0.7,0.2 -0.7,-0.3 -1.1,-0.9 -1.5,-1.5 -0.3,-0.5 -0.6,-1 -0.9,-1.5 -0.2,-0.4 -0.4,-0.4 -0.7,-0.1 -0.4,0.3 -0.7,0.7 -1,1.2 -0.4,0.7 -0.8,1.2 -1.3,1.8 -0.3,0.4 -0.6,0.9 -0.9,1.3 -0.2,0.4 -0.7,0.4 -0.9,0 -0.2,-0.4 -0.3,-0.9 -0.4,-1.3 0,-0.5 -0.2,-1 -0.3,-1.5 -0.1,-0.3 -0.1,-0.6 -0.2,-0.8 0,-0.1 -0.1,-0.1 -0.1,-0.1 0,0.1 0,0.1 -0.1,0.2 -0.3,1.1 -0.6,2.3 -0.8,3.4 -0.1,0.3 -0.1,0.7 -0.4,0.9 -0.2,0.2 -0.4,0.1 -0.5,-0.2 -0.1,-0.4 -0.1,-0.7 -0.2,-1.1 -0.1,-0.7 -0.1,-1.3 -0.2,-2 0,-0.3 0,-0.5 0,-0.8 0,-0.3 0.1,-0.6 0.1,-0.9 0,-0.1 0,-0.2 0.1,-0.2 0.1,-0.1 0.2,-0.2 0.3,-0.2 0.1,0 0.2,0.1 0.3,0.2 0.3,-0.1 0.3,0 0.3,0.2 0,0 0,0 0,0 z"
   id="path36"
   inkscape:connector-curvature="0" />
		<path
   d="m 214.9,49.4 c 0,0.4 0,0.7 0,1.1 0,0.2 0,0.3 0.2,0.3 0.9,0 1.9,0.1 2.8,-0.1 0.3,-0.1 0.6,-0.3 0.9,-0.5 0.3,-0.3 0.4,-0.5 0.1,-0.7 -0.3,-0.3 -0.7,-0.6 -1.1,-0.9 -0.5,-0.3 -1.1,-0.5 -1.6,-0.7 -0.1,-0.1 -0.3,-0.1 -0.4,-0.1 -0.4,-0.1 -0.8,-0.1 -1.2,-0.1 -0.5,0 -1,0.1 -1.5,0.2 -0.2,0 -0.4,0.2 -0.6,0.2 -0.2,0 -0.4,0 -0.5,-0.2 -0.1,-0.2 -0.1,-0.4 0.1,-0.6 0.1,-0.1 0.1,-0.1 0.2,-0.1 0.6,-0.1 1.3,-0.4 1.9,-0.4 0.6,0 1.2,0.2 1.8,0.3 0.2,0 0.4,0 0.6,0.1 1,0.3 2,0.8 2.7,1.5 0.7,0.6 0.6,1.7 -0.1,2.3 -0.6,0.5 -1.3,0.7 -2.2,0.7 -0.6,0 -1.2,0.1 -1.8,0.1 -0.3,0 -0.3,0.2 -0.2,0.4 0.3,0.9 0.2,1.8 0.4,2.8 0.2,1.1 0.1,2.1 0.3,3.2 0,0.2 -0.1,0.4 -0.2,0.5 -0.1,0.1 -0.3,0.2 -0.4,0.2 -0.1,0 -0.2,-0.2 -0.2,-0.3 -0.1,-0.2 -0.1,-0.5 -0.1,-0.7 0,-1.3 -0.1,-2.6 -0.4,-3.8 -0.1,-0.6 -0.1,-1.2 -0.2,-1.8 0,-0.4 -0.1,-0.4 -0.4,-0.4 -0.3,0 -0.6,0 -0.9,-0.2 -0.2,-0.2 -0.2,-0.4 -0.1,-0.6 0,-0.1 0.2,-0.2 0.4,-0.3 0.1,0 0.2,0 0.2,0 0.7,0 0.7,0 0.6,-0.7 -0.1,-0.6 -0.1,-1.1 0,-1.7 0,-0.3 0.1,-0.4 0.4,-0.5 0.2,0 0.4,0.2 0.5,0.5 0,0.2 0,0.6 0,1 0,0 0,0 0,0 z"
   id="path38"
   inkscape:connector-curvature="0" />
		<path
   d="m 125.7,48.2 c -0.2,0 -0.4,0 -0.6,0 -0.4,0 -0.5,0.1 -0.3,0.5 0.2,0.4 0.4,0.9 0.6,1.3 0.2,0.3 0.4,0.6 0.5,1 0.1,0.2 0.1,0.5 0.1,0.8 0,0.1 -0.2,0.2 -0.4,0.3 0,0 -0.2,-0.1 -0.2,-0.2 -0.4,-1 -0.9,-2 -1.3,-3 -0.2,-0.4 -0.3,-0.5 -0.8,-0.4 -0.9,0.2 -1.8,0.3 -2.7,0.5 -0.4,0.1 -0.7,0.2 -1.1,0.3 -0.4,0.1 -0.6,0.3 -0.7,0.6 -0.7,1.1 -1.5,2 -2.4,2.9 -0.1,0.1 -0.2,0.2 -0.3,0.3 -0.2,0.2 -0.3,0.1 -0.4,0 -0.2,-0.2 -0.1,-0.3 0,-0.5 0.4,-0.4 0.7,-0.7 1.1,-1.1 0.5,-0.5 0.9,-1.1 1.3,-1.6 0.2,-0.2 0.1,-0.3 -0.1,-0.4 -0.1,0 -0.1,0 -0.2,-0.1 -0.1,-0.1 -0.2,-0.2 -0.2,-0.4 0,-0.1 0.1,-0.2 0.2,-0.2 0.2,-0.1 0.4,-0.2 0.5,-0.1 0.6,0.1 0.8,-0.3 1,-0.7 0.4,-0.7 0.8,-1.4 1.3,-2 0.4,-0.6 0.9,-1.2 1.3,-1.8 0.1,-0.2 0.2,-0.5 0.4,-0.7 0.1,-0.2 0.2,-0.3 0.3,-0.5 0.2,-0.2 0.4,-0.2 0.5,0.1 0.1,0.4 0.3,0.8 0.3,1.2 0.1,1 0.4,2 0.8,3 0.1,0.3 0.3,0.4 0.6,0.4 0.4,0 0.9,0.1 1.3,-0.2 0.1,-0.1 0.3,0 0.4,0 0.3,0 0.6,0.3 0.6,0.5 0,0.2 -0.3,0.5 -0.5,0.5 -0.3,-0.3 -0.6,-0.3 -0.9,-0.3 0,0 0,0 0,0 z m -5.8,0.1 c 0.2,0 0.3,0 0.4,0 0.7,-0.2 1.4,-0.3 2.1,-0.5 0.3,-0.1 0.6,-0.2 0.9,-0.3 0,0 0.1,-0.1 0.1,-0.2 -0.2,-0.7 -0.4,-1.4 -0.5,-2 -0.1,-0.3 -0.1,-0.6 -0.2,-0.8 -0.1,-0.2 -0.2,-0.2 -0.3,0 -0.6,0.8 -1.1,1.6 -1.7,2.4 -0.3,0.4 -0.5,0.8 -0.7,1.1 -0.2,0.2 -0.2,0.4 -0.1,0.3 z"
   id="path40"
   inkscape:connector-curvature="0" />
		<path
   d="m 222.1,45.8 c 1.8,0 3.2,0.8 4.2,2.4 0.3,0.4 0.4,1 0.5,1.4 0.1,0.2 0.1,0.3 0.2,0.5 0,0.1 0.1,0.2 0.2,0.2 0.4,0 0.5,0.3 0.5,0.6 0,0.2 -0.4,0.6 -0.6,0.6 -0.9,0.3 -1.8,0.6 -2.7,0.8 -0.9,0.2 -1.8,0.4 -2.7,0.1 -0.3,-0.1 -0.6,-0.3 -0.8,-0.5 -0.5,-0.6 -0.5,-1.3 0.3,-1.9 0.2,-0.1 0.4,-0.3 0.6,-0.4 0.9,-0.3 1.9,-0.5 2.9,-0.4 0.4,0.1 0.8,0.2 1.2,0.4 0.2,0.1 0.2,0 0.2,-0.1 -0.4,-1.3 -1.2,-2.3 -2.5,-2.6 -0.6,-0.2 -1.3,-0.3 -2,-0.1 -0.3,0.1 -0.5,0.1 -0.7,-0.2 -0.2,-0.3 -0.2,-0.5 0.1,-0.6 0.2,-0.1 0.4,-0.1 0.7,-0.1 0,-0.1 0.2,-0.1 0.4,-0.1 z m 1.6,4.3 c 0,0.1 0,0.1 0,0 -0.3,0.1 -0.6,0 -0.9,0.1 -0.5,0.1 -1,0.3 -1.3,0.6 -0.2,0.2 -0.2,0.3 0,0.4 0.3,0.2 0.7,0.3 1,0.3 1.1,0.1 2.1,-0.4 3.1,-0.7 0.2,0 0.2,-0.2 0.1,-0.3 -0.1,-0.1 -0.2,-0.2 -0.4,-0.2 -0.5,0 -1,-0.1 -1.6,-0.2 z"
   id="path42"
   inkscape:connector-curvature="0" />
		<path
   d="m 107.7,51.5 c 0,0 0.1,0 0.1,0 0.8,0 1.6,0 2.3,-0.3 0.3,-0.1 0.4,0 0.6,0.2 0.1,0.2 0.1,0.5 -0.1,0.6 -0.3,0.2 -0.7,0.4 -1.1,0.4 -0.7,0.1 -1.5,0.1 -2.2,0.1 -1.2,0 -2.4,-0.3 -3.4,-0.9 -0.7,-0.4 -1.1,-1.4 -0.8,-2.2 0.1,-0.1 0.2,-0.3 0.3,-0.3 0.4,0 0.6,-0.4 1,-0.6 0.4,-0.2 0.8,-0.5 1.3,-0.6 0.6,-0.3 1.3,-0.4 1.9,-0.3 0.4,0 0.8,0.1 1.2,0.4 0.5,0.3 0.5,0.7 0,1 -0.7,0.4 -1.3,0.7 -2.1,0.8 -0.8,0.1 -1.6,0.2 -2.4,0.4 -0.1,0 -0.3,0.1 -0.3,0.2 0,0.1 0.1,0.3 0.2,0.4 0.2,0.2 0.5,0.3 0.7,0.4 0.8,0.1 1.8,0.4 2.8,0.3 z m -0.9,-2.9 c 0,-0.1 0,-0.1 0,0 -0.3,0 -0.6,0.1 -0.8,0.2 0,0 0,0.1 -0.1,0.1 0,0 0.1,0 0.1,0 0.4,-0.1 0.7,-0.1 1.1,-0.2 0,0 0,0 0,0 0,0 0,-0.1 -0.1,-0.1 0.1,0 -0.1,0 -0.2,0 z"
   id="path44"
   inkscape:connector-curvature="0" />
		<path
   d="m 196.8,46.3 c 0.8,0 1.6,0.1 2.3,0.5 0.7,0.4 1.1,1.1 1.4,1.9 0.2,0.5 -0.2,1 -0.4,1.4 -0.7,1.1 -1.7,1.7 -2.9,1.9 -0.7,0.1 -1.5,0.2 -2.3,0 -0.7,-0.2 -1.4,-0.6 -1.7,-1.4 -0.1,-0.3 -0.2,-0.6 -0.3,-0.9 -0.1,-1.4 0.7,-2.7 2.2,-3.1 0.5,-0.2 1.1,-0.3 1.7,-0.3 z m -0.6,4.8 c 0.5,0.1 1.1,-0.1 1.8,-0.4 0.7,-0.3 1.3,-0.8 1.6,-1.5 0.1,-0.2 0.1,-0.5 0,-0.7 -0.1,-0.4 -0.4,-0.8 -0.8,-1.1 -0.6,-0.3 -1.2,-0.4 -1.8,-0.3 -0.3,0 -0.5,0.3 -0.8,0.3 -0.3,0 -0.6,-0.1 -0.9,0 -0.2,0.1 -0.4,0.1 -0.1,0.3 0.2,0.1 0.2,0.3 0.2,0.4 -0.1,0.1 -0.3,0.2 -0.4,0.2 -0.2,0 -0.3,-0.1 -0.5,-0.1 -0.3,-0.1 -0.5,-0.1 -0.6,0.2 -0.3,0.9 -0.2,1.8 0.8,2.4 0.4,0.3 0.9,0.3 1.5,0.3 z"
   id="path46"
   inkscape:connector-curvature="0" />
		<path
   d="m 142,46.3 c 0.9,0 1.6,-0.1 2.3,0.3 0.7,0.4 1.1,0.9 1.4,1.6 0.3,0.6 0,1.2 -0.3,1.7 -0.6,0.8 -1.4,1.4 -2.4,1.7 -0.5,0.1 -1,0.2 -1.4,0.3 -1,0 -1.9,-0.1 -2.6,-0.9 -0.7,-0.8 -0.8,-1.7 -0.5,-2.6 0.4,-1.5 1.8,-2.1 3.1,-2.2 0.1,0.1 0.3,0.1 0.4,0.1 z m -0.7,4.8 c 0.7,0.1 1.3,-0.1 1.9,-0.3 0.5,-0.2 1,-0.5 1.3,-1 0.6,-0.8 0.4,-1.7 -0.4,-2.2 -0.6,-0.4 -1.3,-0.4 -1.9,-0.3 -0.3,0 -0.5,0.3 -0.8,0.3 -0.3,0 -0.6,-0.1 -0.8,0 -0.2,0.1 -0.2,0.1 -0.1,0.3 0.2,0.1 0.3,0.3 0.1,0.5 -0.1,0.1 -0.3,0.1 -0.5,0.2 -0.1,0 -0.2,-0.1 -0.3,-0.1 -0.2,-0.2 -0.4,-0.1 -0.5,0.1 -0.4,0.5 -0.3,1.8 0.4,2.3 0.5,0.1 1.1,0.3 1.6,0.2 z"
   id="path48"
   inkscape:connector-curvature="0" />
		<path
   d="m 170.8,48.9 c -0.1,0.3 -0.3,0.8 -0.5,1.1 -0.6,0.9 -1.3,1.5 -2.4,1.7 -0.5,0.1 -1,0.3 -1.6,0.3 -0.7,0 -1.4,-0.1 -2,-0.4 -0.5,-0.3 -0.8,-0.7 -1,-1.2 -0.5,-1.4 0,-3 1.4,-3.7 0.6,-0.3 1.2,-0.4 1.9,-0.4 0.3,0 0.7,0 1,0 1.2,0 2.1,0.5 2.8,1.6 0.3,0.3 0.3,0.6 0.4,1 z m -4.4,2.3 c 0.7,0 1.2,-0.2 1.8,-0.4 0.7,-0.3 1.2,-0.7 1.6,-1.4 0.2,-0.3 0.2,-0.7 0,-1.1 -0.4,-0.8 -1.1,-1.1 -1.9,-1.1 -0.4,0 -0.8,-0.1 -1.1,0.2 -0.4,0.4 -0.8,-0.1 -1.1,0.1 0,0 0,0 -0.1,0 -0.2,0.1 -0.2,0.1 -0.1,0.3 0.1,0.1 0.2,0.3 0.2,0.3 -0.1,0.1 -0.2,0.2 -0.4,0.3 -0.1,0 -0.3,0 -0.5,-0.1 -0.4,-0.2 -0.5,-0.1 -0.6,0.3 -0.1,0.3 -0.1,0.6 -0.1,0.9 -0.1,0.7 0.3,1.2 1,1.4 0.4,0.2 0.9,0.2 1.3,0.3 z"
   id="path50"
   inkscape:connector-curvature="0" />
		<path
   d="m 189.1,45.7 c -1.2,0 -2.1,0.4 -2.9,1.2 -0.6,0.6 -1.2,1.1 -1.8,1.6 -0.3,0.3 -0.6,0.6 -0.8,1 -0.5,0.6 -0.3,1.6 0.7,1.7 0.4,0 0.9,0.2 1.3,0.3 0.2,0 0.4,0.1 0.6,0.1 0.7,-0.2 1.4,0 2,-0.3 0.3,-0.1 0.7,-0.1 1,-0.2 0.7,-0.2 1.3,-0.3 2,-0.5 0.3,-0.1 0.5,-0.2 0.7,-0.4 0.3,-0.2 0.5,-0.1 0.6,0.1 0.1,0.2 0.1,0.4 -0.2,0.6 -0.2,0.1 -0.3,0.2 -0.5,0.2 -0.5,0.2 -0.9,0.3 -1.4,0.4 -0.7,0.2 -1.4,0.3 -2,0.5 -0.3,0.1 -0.7,0.1 -1,0.2 -0.8,0 -1.6,0.2 -2.4,0 -0.5,-0.1 -1.1,-0.2 -1.6,-0.4 -0.7,-0.3 -1.1,-1.4 -0.8,-2.1 0.3,-0.9 1.1,-1.5 1.7,-2.2 0.2,-0.2 0.4,-0.4 0.6,-0.6 0.6,-0.5 1.2,-1 1.8,-1.5 0.2,-0.2 0.4,-0.2 0.6,-0.4 0.6,-0.4 1.4,-0.4 2.1,-0.3 0.2,0 0.4,0.1 0.5,0.2 0.1,0.1 0.2,0.3 0.2,0.4 0,0.2 -0.3,0.2 -0.4,0.2 -0.2,0.2 -0.4,0.2 -0.6,0.2 z"
   id="path52"
   inkscape:connector-curvature="0" />
		<path
   d="m 173,46 c 1,-0.2 1.7,0.5 2.5,1.1 0.7,0.5 1.1,1.3 1.4,2.1 0.3,0.7 0.6,1.5 0.8,2.3 0,0.1 0.1,0.3 0.1,0.4 0,0.1 -0.1,0.4 -0.2,0.4 -0.1,0 -0.3,0 -0.4,-0.1 -0.4,-0.3 -0.4,-0.7 -0.6,-1.1 -0.4,-0.9 -0.8,-1.9 -1.3,-2.8 -0.4,-0.8 -1.1,-1.2 -2,-1.3 -0.3,0 -0.3,0.1 -0.4,0.3 -0.2,1.1 -0.2,2.2 -0.2,3.3 0,0.6 -0.1,1.2 -0.1,1.7 0,0.3 -0.2,0.6 -0.5,0.5 -0.2,0 -0.5,-0.4 -0.5,-0.6 0.1,-1.1 0.2,-2.1 0.3,-3.2 0,-0.6 0,-1.2 0,-1.7 0,-0.1 -0.1,-0.2 -0.1,-0.3 -0.3,-0.5 0,-1 0.5,-1 0.2,0 0.4,0 0.7,0 z"
   id="path54"
   inkscape:connector-curvature="0" />
		<path
   d="m 229.4,51.8 c 0,0.4 0,0.8 0,1.3 0,0.1 0,0.3 -0.1,0.4 -0.1,0.3 -0.3,0.5 -0.5,0.5 -0.2,0 -0.4,-0.4 -0.5,-0.6 0,-0.1 0,-0.2 0,-0.2 0.1,-1.1 0.2,-2.2 0.2,-3.3 0,-0.4 0,-0.8 0,-1.1 0,-0.2 0,-0.4 -0.2,-0.7 -0.3,-0.4 0,-0.9 0.5,-0.9 0.5,0 1,0 1.4,0 0.2,0 0.4,0.1 0.6,0.2 1.3,0.7 2.3,1.8 2.7,3.2 0.2,0.6 0.5,1.2 0.7,1.9 0.1,0.2 0.1,0.4 0.1,0.6 0,0.3 -0.3,0.4 -0.5,0.2 -0.2,-0.2 -0.4,-0.4 -0.5,-0.7 -0.3,-0.6 -0.5,-1.3 -0.8,-1.9 -0.2,-0.5 -0.5,-1.1 -0.8,-1.5 -0.3,-0.6 -0.9,-0.9 -1.5,-1.1 -0.1,0 -0.2,0 -0.2,0 -0.6,-0.1 -0.6,-0.1 -0.6,0.4 0,0.5 -0.1,1 -0.2,1.5 0.2,0.6 0.3,1.2 0.2,1.8 0.1,0 0,0 0,0 z"
   id="path56"
   inkscape:connector-curvature="0" />
		<path
   d="m 157.3,51.7 c -0.3,0 -0.6,0 -0.9,0 -0.2,0 -0.3,0 -0.5,-0.1 -0.3,-0.1 -0.5,-0.6 -0.4,-0.8 0.1,-0.2 0.4,-0.3 0.7,-0.2 0.8,0.3 1.6,0.1 2.3,0.1 0,0 0.1,0 0.1,0 0.2,-0.1 0.4,-0.2 0.5,-0.4 -0.1,-0.1 -0.2,-0.3 -0.3,-0.4 -0.7,-0.5 -1.4,-0.9 -2.1,-1.4 -0.4,-0.3 -0.7,-0.5 -1.1,-0.8 -0.2,-0.1 -0.3,-0.4 -0.3,-0.6 -0.1,-0.4 -0.1,-0.6 0.3,-0.8 0.4,-0.2 0.7,-0.5 1.1,-0.6 0.5,-0.2 0.9,-0.4 1.4,-0.4 0.3,0 0.7,0 1,0.1 0.2,0 0.3,0.2 0.4,0.5 0,0.4 -0.2,0.6 -0.5,0.5 -0.8,-0.3 -1.5,0.2 -2.3,0.4 -0.5,0.1 -0.5,0.4 -0.1,0.7 0.5,0.4 1,0.6 1.4,1 0.5,0.4 1.1,0.8 1.6,1.2 0.2,0.2 0.5,0.5 0.5,0.8 0,0.4 -0.2,0.7 -0.5,0.9 -0.4,0.3 -0.9,0.4 -1.5,0.4 -0.2,-0.1 -0.5,-0.1 -0.8,-0.1 0,0 0,0 0,0 z"
   id="path58"
   inkscape:connector-curvature="0" />
		<path
   d="m 151.9,45.3 c -0.1,0.3 -0.1,0.7 -0.2,1 -0.3,0.8 -0.3,1.5 -0.4,2.3 -0.1,0.5 -0.3,1.1 -0.4,1.6 -0.1,0.3 -0.2,0.5 -0.3,0.8 -0.2,0.5 -0.6,0.7 -1.1,0.5 -0.6,-0.3 -1,-0.7 -1.4,-1.2 -0.8,-0.9 -1.2,-2 -1.5,-3.2 0,-0.1 -0.1,-0.3 0,-0.4 0.1,-0.1 0.2,-0.3 0.4,-0.3 0.1,0 0.4,0.1 0.4,0.3 0.2,0.3 0.3,0.7 0.4,1 0.3,1 0.9,1.7 1.6,2.4 0.3,0.3 0.7,0.2 0.8,-0.3 0.2,-0.8 0.5,-1.5 0.5,-2.3 0,-0.3 0.1,-0.7 0.2,-1 0.1,-0.5 0.2,-1.1 0.3,-1.6 0,0 0,-0.1 0,-0.1 0.1,-0.1 0.2,-0.3 0.4,-0.4 0.2,0 0.4,0.2 0.4,0.4 -0.1,0.2 -0.1,0.4 -0.1,0.5 0,0 0,0 0,0 z"
   id="path60"
   inkscape:connector-curvature="0" />
		<path
   d="m 135.1,50.2 c 0,0.5 0,1 0.1,1.5 0,0.3 0.1,0.5 -0.2,0.6 -0.3,0.1 -0.6,0 -0.7,-0.3 -0.1,-0.2 -0.1,-0.4 -0.2,-0.7 -0.1,-0.9 -0.1,-1.8 -0.2,-2.7 0,-0.5 0,-0.9 0.6,-1 0.1,0 0.2,-0.2 0.3,-0.4 0.4,-0.7 1,-1.2 1.7,-1.6 0.6,-0.3 1.2,-0.6 1.9,-0.8 0.3,-0.1 0.6,-0.2 0.9,-0.3 0.1,0 0.2,-0.1 0.4,-0.1 0.5,-0.1 0.7,0.1 0.6,0.6 -0.1,0.2 -0.3,0.4 -0.4,0.6 -0.2,0.2 -0.4,0.1 -0.7,0 -0.1,0 -0.2,0 -0.3,0 -1.2,0.3 -2.3,1 -3.2,1.9 -0.1,0.1 -0.1,0.2 -0.1,0.3 -0.4,0.7 -0.6,1.6 -0.5,2.4 z"
   id="path62"
   inkscape:connector-curvature="0" />
		<path
   d="m 161.2,49.9 c 0,-0.4 0,-0.7 0,-1.1 0,-0.1 0,-0.3 0,-0.4 0.1,-0.1 0.2,-0.3 0.4,-0.3 0.1,0 0.3,0.1 0.3,0.2 0.1,0.3 0.2,0.7 0.1,1 0,0.3 0,0.5 0,0.7 0.1,0.5 0.1,1.1 0.2,1.6 0,0.2 -0.3,0.5 -0.5,0.5 -0.3,0 -0.4,-0.2 -0.5,-0.4 0,-0.5 0,-1.1 0,-1.8 -0.1,0 -0.1,0 0,0 z"
   id="path64"
   inkscape:connector-curvature="0" />
		<path
   d="m 152.9,50 c 0,-0.4 0,-0.9 0,-1.3 0,-0.2 0.1,-0.5 0.3,-0.5 0.2,0 0.5,0.2 0.5,0.5 0,0 0,0 0,0.1 0,0.9 0.1,1.8 0.1,2.7 0,0.1 0,0.3 0,0.4 0,0.2 -0.2,0.4 -0.4,0.4 -0.1,0 -0.3,-0.1 -0.4,-0.3 -0.1,-0.2 -0.2,-0.5 -0.2,-0.8 0.1,-0.3 0.1,-0.8 0.1,-1.2 0,0 0,0 0,0 z"
   id="path66"
   inkscape:connector-curvature="0" />
		<path
   d="m 152.4,45.2 c 0,-0.1 0,-0.2 0.1,-0.3 0.1,-0.2 0.3,-0.3 0.5,-0.2 0.3,0.2 0.5,0.6 0.5,0.9 0,0.2 -0.1,0.3 -0.4,0.3 -0.4,0.2 -0.7,-0.2 -0.7,-0.7 z"
   id="path68"
   inkscape:connector-curvature="0" />
		<path
   d="m 161.1,44.7 c 0.1,0.1 0.2,0.2 0.3,0.3 0.1,0.1 0.2,0.3 0.2,0.5 0,0.1 0,0.3 0,0.4 -0.1,0.1 -0.3,0.1 -0.4,0.1 -0.3,-0.1 -0.5,-0.3 -0.6,-0.6 -0.1,-0.2 0.2,-0.7 0.5,-0.7 z"
   id="path70"
   inkscape:connector-curvature="0" />
	</g>
</g>
</svg>
